<svg xmlns="http://www.w3.org/2000/svg" width="32" height="32" viewBox="0 0 32 32">
  <g id="cleaning_services_24dp_5F6368_1_" data-name="cleaning_services_24dp_5F6368 (1)" transform="translate(0 -0.001)">
    <g id="Group_2580" data-name="Group 2580">
      <rect id="Rectangle_1900" data-name="Rectangle 1900" width="32" height="32" transform="translate(0 0.001)" fill="none"/>
      <rect id="Rectangle_1901" data-name="Rectangle 1901" width="32" height="32" transform="translate(0 0.001)" fill="none"/>
    </g>
    <g id="Group_2581" data-name="Group 2581" transform="translate(3.954 1.688)">
      <path id="Path_1828" data-name="Path 1828" d="M20.133,14.179H18.815V4.954A3.948,3.948,0,0,0,14.861,1h0a3.948,3.948,0,0,0-3.954,3.954v9.225H9.59A6.592,6.592,0,0,0,3,20.769v6.59a2.644,2.644,0,0,0,2.636,2.636H24.087a2.644,2.644,0,0,0,2.636-2.636v-6.59A6.592,6.592,0,0,0,20.133,14.179Zm3.954,13.179H21.451V23.4a1.318,1.318,0,1,0-2.636,0v3.954H16.179V23.4a1.318,1.318,0,1,0-2.636,0v3.954H10.907V23.4a1.318,1.318,0,1,0-2.636,0v3.954H5.636v-6.59A3.965,3.965,0,0,1,9.59,16.815H20.133a3.965,3.965,0,0,1,3.954,3.954Z" transform="translate(-3 -1)" fill="#5f6368"/>
    </g>
  </g>
</svg>
