<svg xmlns="http://www.w3.org/2000/svg" xmlns:xlink="http://www.w3.org/1999/xlink" width="1872" height="96" viewBox="0 0 1872 96">
  <defs>
    <linearGradient id="linear-gradient" x1="1" y1="0.5" x2="0" y2="0.5" gradientUnits="objectBoundingBox">
      <stop offset="0" stop-color="#11abdb" stop-opacity="0"/>
      <stop offset="0.251" stop-color="#11abdb" stop-opacity="0.424"/>
      <stop offset="0.296" stop-color="#11abdb" stop-opacity="0.925"/>
      <stop offset="0.522" stop-color="#11abdb" stop-opacity="0.788"/>
      <stop offset="0.803" stop-color="#11abdb" stop-opacity="0.22"/>
      <stop offset="1" stop-color="#11abdb" stop-opacity="0"/>
    </linearGradient>
    <clipPath id="clip-path">
      <path id="Path_1922" data-name="Path 1922" d="M1373.152,183.52c-.195.154-.389.314-.581.48h8.071c-.72-.389-1.442-.773-2.177-1.13a4.759,4.759,0,0,0-5.313.65m322.3-1.44c-.635.608-1.25,1.251-1.834,1.92h9.76a5.111,5.111,0,0,0-3.175-3.02l.019.02a4.8,4.8,0,0,0-1.572-.274,4.569,4.569,0,0,0-3.2,1.354M147.2,182.009V182a13.244,13.244,0,0,0-2.288,2h13.527a8.269,8.269,0,0,0-6.706-3.4,7.908,7.908,0,0,0-4.533,1.406m778.02-2.908a4.744,4.744,0,0,0-1.043,2.514,11.258,11.258,0,0,0-.042,2.385h12.112a25.239,25.239,0,0,0-3.669-4.18,7.149,7.149,0,0,0-4.512-2.06,3.628,3.628,0,0,0-2.846,1.341m-386.845,3.588q-.729.644-1.426,1.311h25.367a5.322,5.322,0,0,0-.824-3.07,7.624,7.624,0,0,0-6.447-3.63c-.658-.046-1.311-.07-1.954-.07a21.528,21.528,0,0,0-14.716,5.459m765.8-5.69a7.1,7.1,0,0,0-2.41,3.85c-.253,1.049-.452,2.111-.713,3.151h12.088a9.508,9.508,0,0,0-.247-4.45,5.325,5.325,0,0,0-5.161-3.853,5.537,5.537,0,0,0-3.556,1.3m375.944-1.759a7.505,7.505,0,0,0-3.876,1.09,48.838,48.838,0,0,0-5.524,4.559c-1.063.965-1.962,2.107-2.978,3.111h14.637a11.788,11.788,0,0,0,1.749-2.671,4.26,4.26,0,0,0-3.933-6.09h-.074m138.937-.45a19.647,19.647,0,0,0-8.447,3.49,10.2,10.2,0,0,0-2.15,2.16,4.753,4.753,0,0,0-1.034,3.56h18.016a5.658,5.658,0,0,0-.149-6.54,6.042,6.042,0,0,0-5.044-2.777,6.866,6.866,0,0,0-1.193.107m15.425.1a5.571,5.571,0,0,0,2.923,6.869c1.777.89,4.277.11,5.875-1.91a7.85,7.85,0,0,0,1.2-2.23,5.189,5.189,0,0,0-4.791-6.83l-.156,0c-2.446,0-4.141,1.38-5.056,4.1m-1089.677.42c-.5,1.8-.633,3.7-1.014,5.54a9.087,9.087,0,0,1-1.22,3.15H754.59a9.356,9.356,0,0,1,2.419-.87c1.667-.37,3.394-.46,5.083-.73,2.771-.44,4.971-2.2,5.142-4.3.21-2.56-1.307-4.26-3.456-5.2a62.421,62.421,0,0,0-9.159-3.37,10.169,10.169,0,0,0-2.566-.35c-3.551,0-6.158,2.212-7.246,6.13m1108.367-4.461a16.809,16.809,0,0,0-1.666,4.771,28.867,28.867,0,0,0-.132,4.079c-.093,1.439-.158,2.884-.377,4.3h8.9a49.057,49.057,0,0,1,1.218-6.68,15.377,15.377,0,0,0,.411-4.541,4.464,4.464,0,0,0-3.123-4.279,3.244,3.244,0,0,0-1.074-.174,4.957,4.957,0,0,0-4.158,2.523M522.257,169.12a33.788,33.788,0,0,0-10.3,9.849,20.827,20.827,0,0,0-1.667,4.2q.025.428.085.83h12.272q2.843-3.072,5.61-6.221a16.548,16.548,0,0,0,2.43-3.259c1.405-2.78.019-5.541-3.024-6.361a6.234,6.234,0,0,0-1.637-.221,7.036,7.036,0,0,0-3.766,1.182M176.631,165h.01c-2.562.24-5.133.32-7.683.6a16.512,16.512,0,0,0-4.49.91c-3.183,1.31-3.815,4.52-1.446,7.06a11.859,11.859,0,0,0,2.812,2.21,11.81,11.81,0,0,1,5.875,7.43,6.788,6.788,0,0,0,.271.79h11.839a15.291,15.291,0,0,0,3.105-8.43c-.1-7.018-3.589-10.632-9.025-10.632q-.618,0-1.268.062M100,174.5c3.672,2.527,7.428,4.932,11.131,7.4l3.144,2.1H133.74a6.407,6.407,0,0,0-3.75-4.33,32.86,32.86,0,0,0-4.971-1.25c-8.756-2.04-16.51-5.7-21.894-13.27a9.52,9.52,0,0,0-2.019-2.31c-.354-.254-.724-.5-1.107-.734ZM1672.252,161.31c-.161,3.16,3.032,6.32,6.618,6.55,2.993.19,5.753-2.56,5.865-5.86h.01a6.6,6.6,0,0,0-6.479-6.55h-.091a6.393,6.393,0,0,0-5.923,5.861m-1162.1-8.871a5.071,5.071,0,0,0-4.64,4.69,5.227,5.227,0,0,0,3.917,5.37,24.286,24.286,0,0,0,3.365.47c1.234-.11,2.279-.11,3.283-.3,2.22-.42,3.625-1.739,3.926-3.539a4.907,4.907,0,0,0-2.419-5.241l-.01.011a10.028,10.028,0,0,0-5.606-1.576,15.128,15.128,0,0,0-1.817.115m-398.2-.069-.009.01a4.2,4.2,0,0,0-3.325,6.079,4.971,4.971,0,0,0,1.507,2.011c2.932,2.029,5.885,4.029,8.948,5.86a7.059,7.059,0,0,0,5.452.669,4.21,4.21,0,0,0,3.083-4.639,6.035,6.035,0,0,0-.9-2.361,19.294,19.294,0,0,0-12.8-7.789c-.934.08-1.446.09-1.948.16m986.666.38a10.746,10.746,0,0,0-.251,3.539,35.2,35.2,0,0,0,.713,4.551,7.73,7.73,0,0,1-3.094,8.149,28.361,28.361,0,0,1-4.419,2.571c-1.516.79-3.112,1.42-4.629,2.23a11.193,11.193,0,0,0-5.916,8.519q-.146.846-.3,1.691h10.426a7.517,7.517,0,0,1,.663-.781,16.751,16.751,0,0,1,3.154-2.61l-.01-.01c4.589-2.829,9.479-4.75,15.024-4.57a61.757,61.757,0,0,0,7.2-.11,21.349,21.349,0,0,0,5.5-1.11,5.685,5.685,0,0,0,3.546-6.18,5.854,5.854,0,0,0-5.565-4.49,7.939,7.939,0,0,0-1.536.1c-.683.1-1.346.29-2.029.359-4.609.471-6.548-.9-7.762-5.5-.3-1.149-.423-2.35-.694-3.51a9.269,9.269,0,0,0-2.631-4.89,4.619,4.619,0,0,0-3.124-1.24,4.4,4.4,0,0,0-4.269,3.291m-627.4-3.991c-1.346.24-2.621.841-3.967,1.091a38.8,38.8,0,0,1-7.583,1.119,19.092,19.092,0,0,0-11.208,3.08c-1,.661-2.108,1.17-3.073,1.86a19.48,19.48,0,0,1-14.019,3.92c-5.072-.609-8.516,1.76-10.957,6.02-1.617,2.821-3.315,5.6-5.093,8.311A43.067,43.067,0,0,0,410.4,184h11.537A21.229,21.229,0,0,1,438,169.819a22.907,22.907,0,0,0,11.118-4.99,31.509,31.509,0,0,1,2.912-2.1,6.6,6.6,0,0,1,4.409-1.09,4.625,4.625,0,0,1,4.258,6.149,12.893,12.893,0,0,1-3.234,5.18,22.492,22.492,0,0,1-10.535,6.131c-1.656.429-3.344.759-5.01,1.17a14.263,14.263,0,0,0-6.563,3.73h24.861a26.8,26.8,0,0,0,2.64-2.6,18.326,18.326,0,0,1,4.318-3.57,5.648,5.648,0,0,1,6.739.561,25.472,25.472,0,0,1,3.175,3.33c.633.739,1.228,1.511,1.827,2.28h21.124c1.28-2.516,2.529-5.048,3.772-7.58a9,9,0,0,0,.613-6.011c-.613-2.85-3.425-3.97-5.975-2.52a7.448,7.448,0,0,0-3,4.021,37.773,37.773,0,0,1-2,4.69,4.886,4.886,0,0,1-5.684,2.449,5.017,5.017,0,0,1-2.983-5.419,8.737,8.737,0,0,1,.633-2.471c.471-1.1,1.165-2.1,1.637-3.19a13.252,13.252,0,0,0,1.114-3.36c.341-2.64-1.9-4.35-4.238-3.16l-.01.05a20.238,20.238,0,0,0-4.1,3c-1.417,1.25-2.732,2.621-4.591,3.21a4.174,4.174,0,0,1-4.308-.939,3.86,3.86,0,0,1-1.185-4.641,17.89,17.89,0,0,1,2.6-3.74c.975-1.18,2.231-2.149,3.124-3.389a3.445,3.445,0,0,0,.2-4.3,4.34,4.34,0,0,0-3.591-2.017,4.83,4.83,0,0,0-.848.077m1180.994,1.66a5.072,5.072,0,0,0,3.435,8.19V158.6a7.111,7.111,0,0,0,6.508-2.3,5.633,5.633,0,0,0,1.266-6.15c-1.035-2.03-2.862-2.83-5.353-2.889h-.033a6.942,6.942,0,0,0-5.823,3.159m-29.959-10.24a35.668,35.668,0,0,0-16.179,4.631c-4.227,2.469-7.039,5.96-7.3,11.07a21.969,21.969,0,0,0-.251,2.55c.421,6.139-2.2,10.469-7.543,13.47a11.3,11.3,0,0,0-3.585,3.569,5.6,5.6,0,0,0,.563,6.681,6.128,6.128,0,0,0,2.992,1.85h2.554a6.2,6.2,0,0,0,.991-.331,19.639,19.639,0,0,0,4.4-2.589c1.877-1.491,3.535-3.24,5.323-4.84,2.038-1.83,4.028-3.731,6.187-5.41a12.4,12.4,0,0,1,7.06-2.821,4.946,4.946,0,0,1,4.65,2.68,4.09,4.09,0,0,1-.322,4.811,21.248,21.248,0,0,1-2.742,3.039c-1.965,1.855-4.025,3.617-6,5.461h13.613a30.356,30.356,0,0,0,3.546-6.68,8.288,8.288,0,0,1,3.193-3.941c3.465-2.34,7.532-.639,8.145,3.481a9.9,9.9,0,0,1-1.389,7.14h17.254a4.487,4.487,0,0,1,.556-4.51,32.915,32.915,0,0,1,3.1-3.4,20.883,20.883,0,0,0,2.631-3.13,3.92,3.92,0,0,0-.13-4.369,3.727,3.727,0,0,0-4.048-1.62,15.755,15.755,0,0,0-3.324,1.27,50.38,50.38,0,0,1-4.629,2.21,6.833,6.833,0,0,1-9.069-4.371,39.127,39.127,0,0,1-1.064-4.47,29.175,29.175,0,0,0-.984-3.97c-1.175-3.009-3.987-3.919-6.659-2.14a39.83,39.83,0,0,0-3.565,2.94,10.584,10.584,0,0,1-6.006,2.72,25.888,25.888,0,0,1-11.64-1.479c-3.514-1.36-3.855-4.94-.814-7.261a9.9,9.9,0,0,1,5.264-1.87c1.536-.139,3.1-.11,4.62-.339a25.775,25.775,0,0,0,4.991-1.16,4.14,4.14,0,0,0,2.691-4.021,3.791,3.791,0,0,0-2.6-4.009,13.021,13.021,0,0,0-4.085-.853q-.2,0-.4.012M487.094,143.65a8.888,8.888,0,0,0,1.958,8.99,4.272,4.272,0,0,0,4.63,1.26v-.011c3.083-.879,4.881-3.43,4.811-6.9a6.945,6.945,0,0,0-3.083-6.071,5.707,5.707,0,0,0-3.194-.979,5.246,5.246,0,0,0-5.122,3.71m1484.323-4.95c-2.7,4.209-6.518,6.819-10.875,9.08-3.305,1.71-3.878,5.109-1.939,8.409.774,1.321,1.878,2.44,2.742,3.71a27.727,27.727,0,0,1,2.682,4.33c.944,2.111.291,3.991-1.527,5.46a7.94,7.94,0,0,1-11.99-2.2,41.961,41.961,0,0,1-1.8-4.24,16.855,16.855,0,0,0-1.918-3.59,6.026,6.026,0,0,0-8.326-.951,5.7,5.7,0,0,0-1.748,7.721,20.653,20.653,0,0,0,1.778,2.51c.823,1.09,1.706,2.15,2.5,3.259a7.259,7.259,0,0,1,1.246,3.841c.231,3.59-3.334,5.649-6.267,4.85a7.448,7.448,0,0,1-4.268-2.721c-1.185-1.659-2.23-3.43-3.253-5.2-.854-1.48-1.517-3.06-2.381-4.54-1.406-2.4-5.474-4.369-8.556-3.1a31.922,31.922,0,0,1-3.425,1.1c-6.217,1.8-8.456-.56-10.575-3.79-.753-1.141-1.336-2.411-2.179-3.471a3.971,3.971,0,0,0-6.267-.389,17.046,17.046,0,0,0-2.43,3.279,12.77,12.77,0,0,1-8.5,6.151c-1.677.37-3.324.869-4.971,1.329-7.472,2.111-10.183,7.93-10.194,13.19q0,.636.007,1.271h9.059a5.126,5.126,0,0,1,1.84-3.89,14.934,14.934,0,0,1,4.388-2.571c2.893-1.06,5.916-1.749,8.858-2.7a13.515,13.515,0,0,1,9.09.07,35.065,35.065,0,0,0,11.6,2.121,9.524,9.524,0,0,1,6.086,2.45,40.908,40.908,0,0,1,3.6,3.649q.4.432.8.871h25.974c.383-.413.778-.813,1.2-1.19a9.49,9.49,0,0,1,7.05-2.631c2.9.158,4.857,1.724,5.379,3.821H1972V170.923a4.761,4.761,0,0,1-.18-5.094c.06-.113.121-.225.18-.338V137.942a5.735,5.735,0,0,0-.583.758m-44.517,2.129a9.015,9.015,0,0,0,.551,5.48c1.2,2.831,3.315,4.2,7.632,4.251,2.1-.52,5.394-1.311,8.677-2.181a4.473,4.473,0,0,0,1.7-1.09,3.725,3.725,0,0,0,.775-4.629,5.931,5.931,0,0,0-1.558-1.97,25.1,25.1,0,0,0-11.157-4.751,8.071,8.071,0,0,0-1-.064c-2.98,0-4.967,1.814-5.618,4.954M1268.2,133.5a8.8,8.8,0,0,0-6.518,2.53c-2.861,2.75-2.421,6.52.955,8.52a9.712,9.712,0,0,0,11.618-1.98,5.039,5.039,0,0,0-.844-7.57h.01a7.5,7.5,0,0,0-4.606-1.521q-.306,0-.616.021m-1160.489-.341a9.519,9.519,0,0,0-4.891,2.661,5.205,5.205,0,0,0-1.475,5.159,4.671,4.671,0,0,0,4.077,3.42,14.54,14.54,0,0,0,10.384-1.829,7.551,7.551,0,0,0,1.586-1.291c2.882-2.99,1.557-7.349-2.541-8.29a29.738,29.738,0,0,0-3.193-.37c-1.236.16-2.621.241-3.948.54m1128.263,5.811a7.306,7.306,0,0,0,7.069,7.82c3.958.1,7.874-3.45,7.914-7.19.05-3.84-3.584-7.48-7.571-7.6h.01l-.2,0a7.321,7.321,0,0,0-7.221,6.973m-374.292-7.11a6.854,6.854,0,0,0-5.735,6.85,10.228,10.228,0,0,0,8.808,9.8,29.413,29.413,0,0,0,7.141-.031,6.9,6.9,0,0,0,6.4-6.259c.532-4.361-1.2-7.77-4.991-9.01v-.01a60.1,60.1,0,0,0-7.291-1.551c-1.938.09-3.154.041-4.328.211m-93.156-.09a19.362,19.362,0,0,0-4.509,3.33,104.2,104.2,0,0,1-13.538,11.749,11.318,11.318,0,0,0-2.983,3.43,4.111,4.111,0,0,0,1.075,5.511,16.07,16.07,0,0,0,3.525,2.029c2.652,1.18,5.333,2.33,8.055,3.32a14.448,14.448,0,0,0,4.46.981c3.544.089,6.508-3.2,4.006-7.04-.834-1.28-1.827-2.481-2.56-3.821a4.1,4.1,0,0,1,1.475-5.78l.01-.019a13.33,13.33,0,0,1,3.314-1.251c1.476-.43,3.044-.6,4.469-1.13a5.443,5.443,0,0,0,3.8-5.49,6.283,6.283,0,0,0-2.038-4.54,7.749,7.749,0,0,0-5.25-2.1,6.955,6.955,0,0,0-3.307.826m310.306,3.209c-.12,2.03.2,4.091.272,6.131a60.887,60.887,0,0,1,.12,7.65c-.521,5.49-2.852,7.92-8.175,9.01-1.846.38-3.745.569-5.563,1.049A9.379,9.379,0,0,0,1058,168.04a18.223,18.223,0,0,0,.472,5.59,50.938,50.938,0,0,1,1.694,10.37h10.119a27.47,27.47,0,0,0-.6-7.911,3.839,3.839,0,0,1-.019-1.019c.069-4.021,1.707-6.351,5.533-7.721,1.285-.46,2.641-.71,3.948-1.109A12.171,12.171,0,0,0,1088.086,156a53.5,53.5,0,0,1,3.333-11.25,10.8,10.8,0,0,0-5.684-13.689,6.643,6.643,0,0,0-2.75-.666c-2.323,0-3.972,1.649-4.15,4.585m-613.272-.29v.01c-.452,2.571,1.778,5.431,4.9,6.27,2.822.76,6.628-1,7.763-3.58,1.7-3.839-1.305-7.75-5.965-7.779h-.052c-3.45,0-6.117,2.036-6.646,5.08m-66.271-5.279a18.049,18.049,0,0,0-4.479,2.4,48.3,48.3,0,0,0-4.137,3.84c-1.617,1.53-3.185,3.12-4.881,4.56-2.763,2.34-5.886,3.42-9.552,2.41a32.4,32.4,0,0,0-4.057-.68,12.127,12.127,0,0,0-9.209,2.4c-.682.51-1.366,1.04-2.019,1.59-3.163,2.64-6.7,4.14-10.244,3.61-1.945,0-3.3-.119-4.594.01a6.625,6.625,0,0,0-5.782,5.124,10.665,10.665,0,0,0-.31,2.056c-.111,2.89-.261,5.79-.211,8.68a13.823,13.823,0,0,0,.683,4.5,5.122,5.122,0,0,0,8.024,2.41,10.681,10.681,0,0,0,2.41-2.61c.784-1.11,1.347-2.38,2.029-3.56,3.185-5.49,8.024-9.27,13.247-12.64a8.963,8.963,0,0,1,5.936-1.26c3.554.38,5.5,3.49,3.956,6.65a16.446,16.446,0,0,1-3.013,4.1h-.02c-1.546,1.59-3.395,2.89-5,4.43-2.591,2.49-5.192,4.98-7.592,7.65a12.723,12.723,0,0,0-3.494,7.83c-.02.365-.034.728-.045,1.09h11.812a13.733,13.733,0,0,1,3.527-5.47c2.189-2.17,4.309-4.41,6.489-6.6a24.292,24.292,0,0,0,7.03-12.29,22.019,22.019,0,0,1,6.888-11.77c2.5-2.33,5.092-4.58,7.573-6.94a42.239,42.239,0,0,0,4.217-4.46,4.249,4.249,0,0,0,.241-5.26,4.566,4.566,0,0,0-3.814-2.088,4.7,4.7,0,0,0-1.609.288M295.365,127.4c-1.365,1.951-.6,3.931.562,5.74.834,1.29,1.828,2.491,2.611,3.81a13.847,13.847,0,0,1-3.043,18.02l.04-.04c-1.148.959-2.341,1.852-3.528,2.77a14.129,14.129,0,0,0-5.051,7.5c-.414,1.55-.756,3.111-1.153,4.661a23.337,23.337,0,0,1-4.861,9.511c-.783.91-1.567,1.82-2.33,2.739A17.048,17.048,0,0,0,277.234,184H290.74c.078-.021.157-.042.236-.061a4.691,4.691,0,0,1,2.493.061h50.691c-.119-.07-.242-.137-.368-.2a12.593,12.593,0,0,0-4.369-1.37,14.194,14.194,0,0,1-10.756-6.221,13.873,13.873,0,0,0-2.912-2.869,7.258,7.258,0,0,0-9.049.11,19.22,19.22,0,0,0-2.8,2.98c-.864,1.06-1.516,2.289-2.4,3.32a7.229,7.229,0,0,1-9.711,1.569,10.118,10.118,0,0,1-1.808-16.54c.131-.12.261-.22.392-.329a14.185,14.185,0,0,1,11.972-3.391c2.881.431,5.744,1,8.626,1.481a9.4,9.4,0,0,0,6.972-1.038,5.264,5.264,0,0,0,1.473-7.277,5.994,5.994,0,0,0-3.444-2.716,24.032,24.032,0,0,0-4.539-.7,6.715,6.715,0,0,0-1.581.164,7.165,7.165,0,0,1-1.482.166,16.656,16.656,0,0,1-4.057-.51,4.841,4.841,0,0,1-3.837-4.88,37.307,37.307,0,0,1,.874-6.56c.693-3.559.392-6.85-2.36-9.5a15.071,15.071,0,0,0-7.612-4.06,10.106,10.106,0,0,0-1.971-.217,4.614,4.614,0,0,0-4.044,1.986m1324.01-4.979a5.149,5.149,0,0,0-5.05,5.29,4.83,4.83,0,0,0,5.04,4.649,5.376,5.376,0,0,0,4.821-5.07,4.768,4.768,0,0,0-4.757-4.87h-.054m-396.617-.92c-3.365.02-6.187,2.669-5.986,5.629v-.01a7.813,7.813,0,0,0,6.187,6.621,5.729,5.729,0,0,0,5.554-2.911c1.832-3.835-.026-9.33-5.6-9.331l-.153,0m-790.064-.391.011-.01a15.955,15.955,0,0,0-3.918,2.41c-3.284,2.75-6.488,5.6-9.671,8.47a26.329,26.329,0,0,0-6.115,7.56,76.518,76.518,0,0,1-10.556,15.12,56.77,56.77,0,0,0-7.24,11.17c-2.27,4.41-4.681,8.75-7.182,13.021a55.017,55.017,0,0,1-3.554,5.15h13.226c.432-1.25.937-2.482,1.5-3.7.853-1.86,1.817-3.68,2.851-5.45,2.079-3.54,4.128-7.11,6.4-10.53a117.577,117.577,0,0,1,6.97-9.509,37.822,37.822,0,0,0,5.865-9A31.152,31.152,0,0,1,432.3,132.549a24.771,24.771,0,0,0,3.244-2.52,12.492,12.492,0,0,0,2.471-3.219,4.128,4.128,0,0,0-3.521-6.092,4.59,4.59,0,0,0-1.8.391m1104.128.581a44.224,44.224,0,0,0-3.515,3.73,104.525,104.525,0,0,1-17.062,16.27c-3.415,2.57-6.529,5.53-9.681,8.42a17.811,17.811,0,0,0-2.882,3.59,6.845,6.845,0,0,0-.974,2.85c-.351,3.37,2.46,5.49,5.664,4.39a12.753,12.753,0,0,0,5.051-3.45c5.726-6.01,12.032-11.16,19.825-14.38a10.912,10.912,0,0,0,5.915-6.15,31.677,31.677,0,0,1,1.5-3.26c2.741-4.84,7.28-5.7,11.609-2.23a18.115,18.115,0,0,1,1.5,1.41c3.987,4.08,4.67,10.16-1.849,13.62v.01c-5.594,2.96-11.248,5.89-17.083,8.32a38.248,38.248,0,0,0-12.493,7.89,38.2,38.2,0,0,1-9.822,7.39,13.461,13.461,0,0,0-3.334,2.37,5.409,5.409,0,0,0-.633,7.43,8.536,8.536,0,0,0,11.027,2.33,10.931,10.931,0,0,0,4.019-3.89c1.627-2.61,3.193-5.26,4.729-7.93a11.3,11.3,0,0,1,3.686-4.2,5.294,5.294,0,0,1,7.311,1.29,7.652,7.652,0,0,1,1.357,2.73,46.955,46.955,0,0,1,1.124,7.07,7,7,0,0,1-3.063,6.69h14.576a10.842,10.842,0,0,0,.136-1.91,22.182,22.182,0,0,0-1.706-7.45c-.884-2.4-1.968-4.73-2.761-7.16-1.436-4.44-.152-7.66,3.845-9.93,1.035-.59,2.2-.95,3.285-1.46a54.035,54.035,0,0,0,5.091-2.44,12.435,12.435,0,0,0,6.217-7.85c1.215-5.37.873-10.69-2.882-15.05a102.291,102.291,0,0,0-9.792-9.77,12.662,12.662,0,0,0-8.389-2.985,13.906,13.906,0,0,0-9.539,3.695m-708-4.76c-2.822.039-5.263,2.979-5.3,6.39a5.27,5.27,0,0,0,4.931,5.409,6.117,6.117,0,0,0,6.156-6.1,5.469,5.469,0,0,0-5.681-5.7h-.1M1202.845,115h.02a6.245,6.245,0,0,0-2.169,1.31,14.074,14.074,0,0,0-4.208,9.05,5.386,5.386,0,0,0,3.023,5.45,5.564,5.564,0,0,0,6.1-1.43,12.535,12.535,0,0,0,3.525-9.07c-.041-.38-.071-1.07-.181-1.73a4.4,4.4,0,0,0-4.349-3.9,5.148,5.148,0,0,0-1.759.321m-446.257-1a38.269,38.269,0,0,0-4.719,1.97c-2.6,1.3-5.123,2.771-7.714,4.091a61.181,61.181,0,0,0-12.473,8.959,16.777,16.777,0,0,0-2.691,3.08,9.205,9.205,0,0,0,4,13.711,4.42,4.42,0,0,0,3.946-.09,7.825,7.825,0,0,0,3.656-3.471c.562-1.05,1.065-2.14,1.526-3.24a20.774,20.774,0,0,1,13.166-12.089,32.784,32.784,0,0,0,3.395-1.17,25.806,25.806,0,0,0,3.987-2.281,4.417,4.417,0,0,0,1.888-3.8c.03-1.62-.2-2.95-1.346-3.919l-.01.01a7.481,7.481,0,0,0-4.751-2.079,5.746,5.746,0,0,0-1.857.318m676.922.861a21.319,21.319,0,0,0,0,4.079c.151,3.76.362,7.521.482,11.281a16.45,16.45,0,0,1-3.435,11.039,36.775,36.775,0,0,0-6.819,14.791,23.069,23.069,0,0,1-4.911,10.049,27.182,27.182,0,0,0-5.665,12.471q-.575,2.739-1.384,5.43h11.011a7.576,7.576,0,0,1-.477-1.611,8.763,8.763,0,0,1,3.195-8.72,5.211,5.211,0,0,1,6.216-.8,27.16,27.16,0,0,1,2.712,1.461,18.02,18.02,0,0,0,10.736,2.87c9.415-.053,18.827-.044,28.241-.036q7.014.006,14.03.005a15.035,15.035,0,0,0,3.083-.1,17.585,17.585,0,0,0,4.359-1.389,5.22,5.22,0,0,0,2.8-4.611,6.6,6.6,0,0,0-2.511-5.9c-5.192-4.041-11.489-6.04-17.836-.871a32.262,32.262,0,0,1-5.574,3.631,9.235,9.235,0,0,1-3.947.91,5.034,5.034,0,0,1-4.831-3.24,4.138,4.138,0,0,1,.984-4.75,29.5,29.5,0,0,1,4.378-3.481c1.406-.98,2.943-1.759,4.389-2.669a6.728,6.728,0,0,0,2.892-4.11,4.352,4.352,0,0,0-3.957-5.441,6.826,6.826,0,0,0-4.429,1.021c-3.014,1.98-6.056,3.889-9.018,5.95a10.93,10.93,0,0,0-4.279,6.229c-.321,1.151-.583,2.331-1.015,3.44a7.322,7.322,0,0,1-6.146,4.831,14.469,14.469,0,0,1-6.6-.681c-6.87-2.209-8.728-8.65-4.048-14.109a15.779,15.779,0,0,1,6.267-4.371,23.13,23.13,0,0,1,3.445-1.05,37.932,37.932,0,0,0,10.474-4.17c2.391-1.34,4.871-2.53,7.241-3.909a19.863,19.863,0,0,0,3.706-2.71,4.883,4.883,0,0,0,1.185-5.67,5.445,5.445,0,0,0-4.379-3.21,7.9,7.9,0,0,0-7.12,2.13c-1.235,1.18-2.24,2.589-3.465,3.79a15.223,15.223,0,0,1-3.535,2.919c-3.776,1.89-7.411-.769-6.939-4.47a14.255,14.255,0,0,1,.733-2.949c.462-1.281,1.065-2.52,1.607-3.77a13.052,13.052,0,0,0,.864-7.03,8.52,8.52,0,0,0-4.61-6.441,6.167,6.167,0,0,0-3.03-.847c-2.519,0-4.633,1.808-5.075,4.788m-970.587-4a27.749,27.749,0,0,0-4.118,3.02c-4.379,3.89-8.185,8.24-10.544,13.68a21.98,21.98,0,0,1-9.783,10.8,13.771,13.771,0,0,0-2.943,2.04,12.881,12.881,0,0,0-2.47,3.19,3.618,3.618,0,0,0,2.048,5.03,5.05,5.05,0,0,0,4.47-.17c2.389-1.31,4.69-2.79,7.069-4.12a21.968,21.968,0,0,0,10.394-12.17,21.012,21.012,0,0,1,9.21-11.27,26.656,26.656,0,0,0,3.7-2.75,6.073,6.073,0,0,0,2.089-4.42,4.253,4.253,0,0,0-3.174-3.72h-.01a8.125,8.125,0,0,0-2-.257,7.509,7.509,0,0,0-3.932,1.117m376.559-.991a9.482,9.482,0,0,0,.994,5.441,19.609,19.609,0,0,0,4.77,5.94,7.784,7.784,0,0,0,2.2,1.279,4.006,4.006,0,0,0,5.3-2.6,10.124,10.124,0,0,0,.27-1.579c.06-3.7-2.039-8.8-4.389-11.041a9.212,9.212,0,0,0-1.617-1.24,5.5,5.5,0,0,0-2.784-.794,4.782,4.782,0,0,0-4.748,4.594m-568.8.841a27.465,27.465,0,0,0-1,7.059c-.13,7.351-.231,14.711-.03,22.05a53.991,53.991,0,0,1-5.473,24.791,111.951,111.951,0,0,1-6.3,11.149l-.02.021a20.078,20.078,0,0,0-3.124,8.22h10.936a23.15,23.15,0,0,1,3.5-6.95,48.128,48.128,0,0,0,6.518-13.31c.6-1.781,1.3-3.53,1.849-5.33,1.385-4.531,3.624-8.46,7.541-11.33a11.723,11.723,0,0,0,2.22-2.121c2.039-2.52,1.918-5.07-.29-7.359a18.393,18.393,0,0,0-1.978-1.631c-.813-.619-1.678-1.19-2.482-1.83-4.248-3.359-4.379-9.5.493-12.57,1.154-.73,2.36-1.419,3.435-2.26,3.142-2.479,3.474-5.819.963-8.98a15.484,15.484,0,0,0-6.2-4.479,9.3,9.3,0,0,0-3.631-.792c-3.214,0-5.852,2.008-6.925,5.652m546.827-7.261c-3.214.061-6.488,3.25-6.307,6.291a5.094,5.094,0,0,0,5.4,5.01l-.009-.01c3.866-.041,6.488-2.33,6.477-5.76a5.482,5.482,0,0,0-5.454-5.532h-.109m371.678-.59a4.923,4.923,0,0,0-4.006,1.991,29.521,29.521,0,0,0-2.8,4.86c-1.316,2.97-2.391,6.05-3.646,9.039a16.221,16.221,0,0,1-7.874,8.48c-1.075.54-2.149,1.08-3.195,1.661a11.737,11.737,0,0,0-6.5,11.87,44.5,44.5,0,0,0,1.045,6.05c.9,4.21,1.656,8.409.271,12.649-.532,1.62-1.175,3.21-1.707,4.83l-.01.071a49.709,49.709,0,0,0-2.249,7.339,86.262,86.262,0,0,1-2.933,12.3h9.812a35.959,35.959,0,0,1,1.437-4.671c2.55-6.709,4.277-13.709,7.3-20.26a11.753,11.753,0,0,0-.34-10.42,28.569,28.569,0,0,1-1.748-4.269,7.112,7.112,0,0,1,.241-5.021,4.415,4.415,0,0,1,7.212-1.61,14.747,14.747,0,0,1,2.511,3.8c.632,1.2.943,2.57,1.536,3.8a7.483,7.483,0,0,0,5.423,4.32c1.346.27,2.7.479,4.047.779a17.583,17.583,0,0,1,2.962.82,5.07,5.07,0,0,1,3.4,4.711,4.786,4.786,0,0,1-3.343,4.719,20,20,0,0,1-4.982,1.08c-6.176.62-8.526,2.471-10.243,8.3a10.889,10.889,0,0,0-.542,1.98,26.707,26.707,0,0,1-3.857,11.05c-.164.287-.318.585-.461.891h12.872c.025-.139.049-.28.072-.421.221-1.35.241-2.72.371-4.089a9.732,9.732,0,0,1,6.8-8.811c1.286-.479,2.6-.859,3.917-1.27,7.08-2.21,8.817-4.5,8.928-11.76a18.375,18.375,0,0,1,.141-3.07c.7-3.719,4-5.269,7.442-3.53a8.672,8.672,0,0,1,1.737,1.1c5.624,4.88,7.311,11.61.321,17.48a42.864,42.864,0,0,1-12.684,7.73,22.208,22.208,0,0,0-3.676,1.831,10.846,10.846,0,0,0-2.389,1.929,5.21,5.21,0,0,0-1.37,2.881h18.3a20.962,20.962,0,0,0,8.765-8.3,11.634,11.634,0,0,1,2.973-3.481,4.359,4.359,0,0,1,7.27,3.021,18.4,18.4,0,0,1-.039,3.07c-.072,1.369-.281,2.729-.252,4.089a8.014,8.014,0,0,0,.192,1.6h55.738a4.576,4.576,0,0,0-2.411-5.671,9.131,9.131,0,0,0-5.513-.79,77.6,77.6,0,0,1-8.205.71,10.207,10.207,0,0,1-9.118-4.87,27.839,27.839,0,0,1-3.737-7.849c-.662-2.3-1.4-4.581-2.27-6.811a8.2,8.2,0,0,0-3.515-4.289,5.653,5.653,0,0,0-6.3.259,5.048,5.048,0,0,0-1.607,6.421,36.931,36.931,0,0,0,3.464,5.03,56.342,56.342,0,0,1,3.6,4.96,4.185,4.185,0,0,1-1.025,5.149,4.481,4.481,0,0,1-4.741,1.061,9.13,9.13,0,0,1-4.478-3.32c-1.478-1.881-2.733-3.931-4.058-5.921-3.615-5.4-7.161-10.86-10.866-16.21a35.006,35.006,0,0,0-10.9-10.03c-3.928-2.36-8.005-2.92-12.283-.93-.934.43-1.908.781-2.863,1.17a8.962,8.962,0,0,1-9.671-1.42,90.217,90.217,0,0,1-7.422-7.089,9.13,9.13,0,0,1-2.179-8.131,14.974,14.974,0,0,1,1.166-3.379,39.2,39.2,0,0,1,5.493-8.64,9.973,9.973,0,0,0,2.4-5.03,4.706,4.706,0,0,0-4.854-5.529c-.1,0-.2,0-.309.008m698.967,1.58a16.347,16.347,0,0,0,2.169,4.021,39.471,39.471,0,0,0,3.034,3.479,30.409,30.409,0,0,1,7.562,14.881,41.59,41.59,0,0,0,2.631,8.28,50.43,50.43,0,0,1,3.977,13.189,10.056,10.056,0,0,0,2.861,6.431,5.886,5.886,0,0,0,4.2,1.909,4.525,4.525,0,0,0,4.377-3.5,9.47,9.47,0,0,0,.181-4.04c-1.013-4.66-1.968-9.36-4.458-13.56a21.17,21.17,0,0,1-1.928-4.17,4.168,4.168,0,0,1,3-5.56l-.011-.01a38.639,38.639,0,0,1,4.541-.91,5.222,5.222,0,0,0,3.755-2.43,7.377,7.377,0,0,0-.723-8.589,5.572,5.572,0,0,0-6.488-1.6c-1.445.531-2.8,1.28-4.237,1.851-3.254,1.27-5.625.55-7.5-2.41a45.361,45.361,0,0,1-2.311-4.57,18.013,18.013,0,0,0-5-6.43,8.793,8.793,0,0,0-5.173-2.071c-.067,0-.135,0-.2,0a4.3,4.3,0,0,0-4.257,5.814m-665.9-6.4a77.726,77.726,0,0,0-5.946,5.53,5.147,5.147,0,0,0-1.346,4.06c.08,3.161,2.7,5.26,5.674,4.28a14.675,14.675,0,0,0,9.742-9.669,4.466,4.466,0,0,0,.14-1.51,3.849,3.849,0,0,0-3.917-3.87c-.161-.008-.322-.011-.484-.011a5.872,5.872,0,0,0-3.864,1.19m742.522-2.979h0a30.057,30.057,0,0,0-4.108,15.63,12.192,12.192,0,0,0,4.961,9.18c2.3,1.838,4.7,1.925,6.375.633V92.659a4.891,4.891,0,0,0-2.407-.629,5.534,5.534,0,0,0-4.821,3.03M399.182,89.72a5.164,5.164,0,0,0-3.576,8.43,7.17,7.17,0,0,0,5.273,2.85c2.049.17,4.118.1,6.167.26a26.62,26.62,0,0,1,5.052.74c2.65.76,4.056,2.6,3.966,4.71A4.825,4.825,0,0,1,411.6,111h.01a23.664,23.664,0,0,1-6.115-.16c-1.859-.23-3.657-.91-5.514-1.24-6.88-1.25-13.318-.64-18.721,4.45a12.735,12.735,0,0,1-11.106,3.47c-1.165-.08-1.507-.09-1.849-.13-4.68-.63-8.355,1.07-11.3,4.68-1.837,2.25-3.845,4.36-5.775,6.54a16.2,16.2,0,0,0-1.286,1.59c-1.746,2.53-1.917,5.56-.432,7.11,1.568,1.63,4.46,1.52,7.06-.34a30.328,30.328,0,0,0,3.143-2.64c3.576-3.35,7.644-5.03,12.654-4.29a12.2,12.2,0,0,0,10.766-3.72c1.336-1.32,2.812-2.5,4.258-3.71,4.851-4.06,10.235-5.27,16.311-3.12a41.494,41.494,0,0,0,6.427,1.81c6.628,1.21,12.965-2.31,14.582-8.41a32.649,32.649,0,0,0,.6-14.72,10.726,10.726,0,0,0-.341-1.5c-.884-2.48-2.541-4.04-5.313-4.06a37.681,37.681,0,0,0-4.108.22,15.748,15.748,0,0,1-9.491-1.56,8.855,8.855,0,0,0-2.359-1,20.239,20.239,0,0,0-3.885-.579c-.216,0-.431.009-.645.029M200.881,88a20.763,20.763,0,0,1-1.406,4.459c-.542,1.26-1.115,2.5-1.667,3.751a18.073,18.073,0,0,0-1.386,9.509c.452,4.071.6,8.18.713,12.281a33.091,33.091,0,0,1-2.912,13.439,26.159,26.159,0,0,1-8.275,10.941,14.248,14.248,0,0,1-7.432,3.289,9.617,9.617,0,0,1-3.545-.239c-3.455-1-4.519-4.49-2.209-7.211,1.326-1.56,2.832-2.99,4.288-4.44a45.477,45.477,0,0,0,7.141-9.379c2.842-4.87,3.063-9.681-.2-14.471a39.849,39.849,0,0,1-2.651-4.39,9.553,9.553,0,0,1,1.516-11.389,29.571,29.571,0,0,1,2.2-2.17A19.116,19.116,0,0,0,188.411,88H174.281q-.783.951-1.571,1.9a15.031,15.031,0,0,0-3.254,12.981,33.122,33.122,0,0,0,1.526,4.88c.522,1.449,1.2,2.84,1.727,4.28,1.265,3.409,1.235,6.839-.9,9.82a29.043,29.043,0,0,0-5.564,15.189c-.181,2.51-2.28,3.78-4.8,3.451a5.406,5.406,0,0,1-4.268-3.34,13.454,13.454,0,0,1-1.075-8.511c.341-1.849.844-3.66,1.265-5.49a46.528,46.528,0,0,0,1.316-10.14,89.047,89.047,0,0,0-.914-12.78A19.85,19.85,0,0,1,159.8,88H149.219q-.47.894-1.023,1.769c-1.928,3.05-2.069,6.471-1.446,9.93.3,1.68.643,3.361,1.034,5.02a33.261,33.261,0,0,1,.532,10.211,16,16,0,0,1-1.465,5.724,5.949,5.949,0,0,1-7.229,2.839c-2.941-1.088-4.691-3.114-4.522-6.064a25.245,25.245,0,0,1,1.145-5.469c.582-1.98,1.285-3.911.994-6.02a4.558,4.558,0,0,0-2.882-3.931,4.342,4.342,0,0,0-4.75,1.01,12.565,12.565,0,0,0-2.189,2.821c-.623,1.01-.964,2.209-1.607,3.2a12.277,12.277,0,0,1-2.571,3.15,5.488,5.488,0,0,1-8.948-3.68,10.9,10.9,0,0,1,.793-6.02,15.584,15.584,0,0,1,9.28-8.38c1.6-.6,3.3-.939,4.931-1.46A19.661,19.661,0,0,0,137.419,88H110.065a11.953,11.953,0,0,1-2.031,9.21,25.616,25.616,0,0,0-3.8,11.049,11.616,11.616,0,0,1-1.336,4.37,9.78,9.78,0,0,1-2.9,3.147v10.679q.4-.224.8-.486c.864-.56,1.727-1.119,2.571-1.71a15.86,15.86,0,0,1,12.785-2.43c2.521.51,5.031,1.111,7.522,1.761a16.451,16.451,0,0,1,3.354,1.26,7.111,7.111,0,0,1,3.877,5.709,9.308,9.308,0,0,1-.653,5.03c-.673,1.571-1.336,3.15-1.938,4.75a9.575,9.575,0,0,0,1.135,9.28,25.035,25.035,0,0,0,2.933,3.571A19.031,19.031,0,0,1,138,165a17.586,17.586,0,0,0,1.075,4.44c.854,2.15,2.692,3.011,4.961,2.95,5.041-.129,8.4-6.1,6.709-9.459a53.383,53.383,0,0,0-2.983-5.34c-1.968-3.011-4.218-5.84-6.086-8.9a32.508,32.508,0,0,1-2.932-6.511,8.786,8.786,0,0,1-.241-4.029c.432-2.79,2.28-4.76,4.479-5.02,2.6-.311,4.258,1.2,5.363,3.24a32.673,32.673,0,0,1,2.089,5.22,26.961,26.961,0,0,0,5.825,10.16,9.372,9.372,0,0,0,6.819,3.15c.7.018,1.406.011,2.107.005.5,0,1-.009,1.5-.005.811.006,1.624,0,2.437,0,2.1-.01,4.206-.02,6.3.131a19.867,19.867,0,0,0,9.551-1.569,29.238,29.238,0,0,1,4.3-1.71,5.8,5.8,0,0,1,7.572,5.439,24.148,24.148,0,0,1-.362,5.091c-.221,1.52-.743,2.989-1.024,4.5-.452,2.449.432,4.969,2.129,5.889,2.24,1.211,4.308.64,6.237-.81a4.908,4.908,0,0,0,.783-.659c1.7-1.995,3.574-3.879,5.081-6.013a7.665,7.665,0,0,0-.35-9.4,51.333,51.333,0,0,0-3.867-3.775,12.238,12.238,0,0,1-3.555-13.12,26.38,26.38,0,0,1,2.752-6.58,27.853,27.853,0,0,0,4.087-16.151c-.131-3.76-.09-7.529-.05-11.289.057-5.849.763-11.548,3.055-16.87Zm22.631,0a7.469,7.469,0,0,0-.436,1.13,23.306,23.306,0,0,0-.723,5.56c-.161,3.929.321,7.949-.362,11.78a37.177,37.177,0,0,0,.673,16.729c.05.16.1.33.141.49,1.095,4.45-.03,8.091-3.9,10.791a16.851,16.851,0,0,0-2.752,2.31,5.521,5.521,0,0,0-.482,7.48,15.624,15.624,0,0,0,2.842,2.96c3.636,2.859,5.021,6.809,5.725,11.139.8,4.93-.422,9.231-4.278,12.51l.01.01c-5.746,4.9-11.241,10.15-18.388,13.111h22.752a4.663,4.663,0,0,1,2.2-6.8,8.279,8.279,0,0,1,5.514-.709c1.838.409,3.686.83,5.534,1.209a9.511,9.511,0,0,0,8.587-2.41,23.149,23.149,0,0,0,3.073-3.43,31.267,31.267,0,0,0,5.976-14.04,152.606,152.606,0,0,0,1.958-20.4c.07-4.1.09-8.211,0-12.32a31.5,31.5,0,0,1,2.752-13.96,20.467,20.467,0,0,0,1.436-4.37,7.454,7.454,0,0,0-1.667-6.721,4.7,4.7,0,0,0-6.036-1.15,6.542,6.542,0,0,0-3.435,3.66,31.39,31.39,0,0,0-1.024,3.96,55.359,55.359,0,0,1-1.406,6.5,45.615,45.615,0,0,0-2.179,15.66v7.62c.452,7.64-1.095,16.1-1.737,24.621a7.579,7.579,0,0,1-2.3,5.019,3.928,3.928,0,0,1-5.885-.35,5.557,5.557,0,0,1-1.135-2.25,43.044,43.044,0,0,1-.783-6.59c-.09-7.529-.02-15.05-.01-22.58q0-8.474-.02-16.94a20.964,20.964,0,0,1,3.344-12.17,21.655,21.655,0,0,0,2.109-4.65,4.461,4.461,0,0,0,.161-2.51,19.805,19.805,0,0,0-6.213-9.9Zm33.281,0a5.6,5.6,0,0,0,2.842,3.08c1.927.83,4.69-.021,6.366-2.171a9.072,9.072,0,0,0,.618-.909Zm19.041,0q-.111.474-.192.949a5.371,5.371,0,0,0,1.466,4.731,3.548,3.548,0,0,0,4.238.779,7.391,7.391,0,0,0,3.677-3.449c.5-.982.949-1.988,1.362-3.01Zm21.489,0a34.527,34.527,0,0,1-2.338,3.029A16.453,16.453,0,0,0,292.9,93.95a9.9,9.9,0,0,0-1.185,3.34,4.449,4.449,0,0,0,6.346,4.78,10.241,10.241,0,0,0,3.264-2.42c1.9-1.98,3.575-4.15,5.433-6.171A24.254,24.254,0,0,0,310.619,88Zm30.257,0a15.888,15.888,0,0,0,1.852,2.27c3.767,3.739,8.627,3.579,12.263-.25A25.718,25.718,0,0,0,343.4,88Zm49.35,0a8.572,8.572,0,0,1-.136,2.37c-.793,4.06-4.719,5.84-8.185,3.63h.011a37.78,37.78,0,0,1-3.556-2.94c-3.244-2.7-6.046-2.66-9.069.34a40.505,40.505,0,0,0-3.544,4.39,29.847,29.847,0,0,1-5.846,6.45c-3.363,2.47-7.06,3.59-11.147,2.33a71.525,71.525,0,0,1-7.13-2.85c-1.727-.74-3.354-1.75-5.123-2.38a7.009,7.009,0,0,0-8.355,2.18c-.443.53-.914,1.02-1.317,1.58a13.226,13.226,0,0,1-6.96,5.01,14.478,14.478,0,0,0-3.676,1.77,3.923,3.923,0,0,0-1.587,4.08,4.512,4.512,0,0,0,2.651,3.57,42.464,42.464,0,0,0,5.353,1.76c3.637,1.11,6.759.09,9.521-2.36a32.82,32.82,0,0,1,3.123-2.67,10.222,10.222,0,0,1,9.762-1.46,5.531,5.531,0,0,1,2.531,8.82,25.454,25.454,0,0,1-4.65,3.98c-1.365,1.03-2.953,1.76-4.277,2.83-3.124,2.52-4.139,5.91-2.872,9.1a9.829,9.829,0,0,0,9.2,5.94,5.945,5.945,0,0,0,5.01-3.45,18.814,18.814,0,0,0,1.6-4.84,28.563,28.563,0,0,1,3.122-8.64c1.547-2.86,3-5.77,4.7-8.54a53.673,53.673,0,0,1,4.5-6.23,17.162,17.162,0,0,1,13.548-6.29c2.4-.03,4.811-.01,7.212-.09a13.8,13.8,0,0,0,8.967-3.4,23.633,23.633,0,0,0,6.729-11.32,12.391,12.391,0,0,0,.479-2.67Zm90.2,0a11.389,11.389,0,0,1-4.034,2.9,6.969,6.969,0,0,1-.955.37,19.76,19.76,0,0,0-9.521,5.83,11.954,11.954,0,0,1-3.273,2.44c-2.4,1.26-4.771.26-5.9-2.27-1.2-2.69-.2-5.03,1.2-7.25A9.448,9.448,0,0,1,446.365,88H435.44a30.015,30.015,0,0,0-.777,8.75c0,2.11-.13,3.67.031,5.19a22.986,22.986,0,0,0,1.063,5.5c1.849,5.02,6.459,6.86,11.219,4.38a25.136,25.136,0,0,0,5.753-4.26,23.64,23.64,0,0,1,15.608-7c4.68-.25,7.653-2.71,9.168-7A42.19,42.19,0,0,0,479.056,88Zm79.9,0c-.988,3.392-1.883,6.812-2.556,10.3-.914,4.729-1.788,9.4-.733,15.319,0,1.12.1,3.35-.029,5.561a5.113,5.113,0,0,1-3.305,4.779c-2.189.9-4.037.2-5.714-1.179a11.642,11.642,0,0,1-3.495-4.981,18.621,18.621,0,0,1-.723-9.619A77.074,77.074,0,0,1,533.8,93.719q1.029-2.852,2.032-5.719H525.395a21.967,21.967,0,0,1-1.48,1.979c-.774.921-1.557,1.831-2.37,2.711a10.164,10.164,0,0,0-2.351,10.46,33.487,33.487,0,0,1,.984,6.02,4.941,4.941,0,0,1-1.4,3.749c-1.527,1.751-3.624,2.211-5.514.89a11.08,11.08,0,0,1-3.244-3.2,15.34,15.34,0,0,0-7.993-6.91,5.233,5.233,0,0,1-.9-.491c-4.509-2.88-4.328-8.23.452-10.62a23.455,23.455,0,0,1,4.86-1.61,13.28,13.28,0,0,0,6-2.979H491.561l-.005.009a32.753,32.753,0,0,0-1.727,3.15,38.729,38.729,0,0,0-2.652,6.65,131.147,131.147,0,0,1-4.83,16.73,16.439,16.439,0,0,0-.563,8.11,7.228,7.228,0,0,0,2.019,4.071,4.82,4.82,0,0,0,5.213,1.239,4.164,4.164,0,0,0,2.932-3.849c.142-1.53,0-3.07.051-4.611a15.334,15.334,0,0,1,.372-3.55,4.518,4.518,0,0,1,3.354-3.55,4.658,4.658,0,0,1,5.03,1.77,9.411,9.411,0,0,1,1.707,3.641,48.575,48.575,0,0,1,.754,6.609c.13,2.051.13,4.1.08,6.15-.152,5.39,2.37,9.07,7.07,11.531,3.183,1.669,6.3,3.479,9.409,5.269a7.616,7.616,0,0,0,4.41,1.141,4.179,4.179,0,0,0,3.755-5.48,7.874,7.874,0,0,0-2.983-4.081c-1.255-.889-2.59-1.66-3.907-2.47-1.607-.99-3.254-1.909-4.82-2.94a8.155,8.155,0,0,1-3.134-4.58c-.773-2.409.2-4.36,1.828-6.04,1.456-1.5,3.385-1.669,5.714-.58a8.674,8.674,0,0,1,2.219,1.28c3.786,3.471,7.683,6.84,11.208,10.56a13.238,13.238,0,0,1,3.506,10.42c-.152,1.87-.353,3.741-.653,5.59-.282,1.68-.8,3.33-1.1,5.01a12.306,12.306,0,0,0,1.5,8.41,8.44,8.44,0,0,0,5.926,4.521,4.524,4.524,0,0,0,5.4-3.581,14.63,14.63,0,0,0,.161-4.59c-.552-4.4-1.235-8.78-1.978-13.159-.4-2.35-.944-4.69-1.567-7-.822-3.03.02-5.76,1.4-8.369a13.282,13.282,0,0,1,2.43-3.291c4.258-4.1,5.754-9.17,5.624-14.89-.05-2.39.03-4.789,0-7.18A60.375,60.375,0,0,1,557.433,88ZM622.5,88a19.852,19.852,0,0,1-1.935,3.7,13.026,13.026,0,0,0-1.657,4.78c-.533,2.91.723,5.37,2.561,7.52,3.485,4.08,4.3,8.78,3.615,13.94-.432,3.21-.673,6.45-.924,9.69a17.07,17.07,0,0,1-1.979,6.84c-2.41,4.47-6.879,5.12-10.585,3.7a6.549,6.549,0,0,1-4.067-8.72,32.53,32.53,0,0,1,3.154-5.22,59.549,59.549,0,0,0,3.435-5.67,9.158,9.158,0,0,0,.723-3.97,5.864,5.864,0,0,0-3.8-5.59,5.969,5.969,0,0,0-6.518,1.94,14.751,14.751,0,0,0-2.26,3.4c-1.014,2.16-1.818,4.42-2.732,6.64a34.355,34.355,0,0,1-1.808,4.23c-1.978,3.46-5.021,5.15-9.039,4.49a18.177,18.177,0,0,1-11.77-6.74,7.557,7.557,0,0,1-1.587-5.28,5.326,5.326,0,0,1,5.3-5.22,15.1,15.1,0,0,1,3.053.39A9.5,9.5,0,0,0,594,108.71a49.308,49.308,0,0,1,9.19-9.65,18.85,18.85,0,0,0,6.237-9.83q.164-.615.331-1.23H597.287A78.883,78.883,0,0,1,586.8,100.24a20.512,20.512,0,0,1-4.278,2.74c-1.7.96-4.128.17-5.423-1.68a6.051,6.051,0,0,1-.954-5.36,14.449,14.449,0,0,1,3.565-6.17q.839-.867,1.621-1.77H568.75a24.686,24.686,0,0,0-2.405,11.08c.02,5.13-.111,10.27,0,15.4a19,19,0,0,1-5.534,14.42,35.938,35.938,0,0,0-2.691,3.1h-.01c-2.47,3.18-3.373,6.67-2.028,10.59.441,1.29.823,2.61,1.345,3.88a26.986,26.986,0,0,1,1.909,12.98c-.09,1.96-.312,3.85-.212,5.72a10.466,10.466,0,0,0,.914,3.92,4.159,4.159,0,0,0,6.488,1.59,9.177,9.177,0,0,0,2.582-3.09,22.709,22.709,0,0,0,1.185-3.91,19.131,19.131,0,0,1,1.175-3.37,7.008,7.008,0,0,1,9.761-2.68c3.173,1.81,3.987,5.35,1.848,8.89-1.053,1.75-2.42,3.32-3.646,4.96-1.436,1.92-2.942,3.79-4.3,5.76a9.312,9.312,0,0,0-1.677,5.81,6.85,6.85,0,0,0,.11.95h12.451l.094-.2c.772-1.71,1.455-3.47,2.088-5.24a59.279,59.279,0,0,1,5.739-12.491,15.44,15.44,0,0,0,1.6-3.1c2.7-7.511.537-13.292-8.08-14.1-2.733-.25-5.495-.09-8.236-.23a55.28,55.28,0,0,1-7.16-.7,7.7,7.7,0,0,1-3.765-13.44c1.505-1.29,5.191-1.53,7.27,0,.694.51,1.446.93,2.13,1.44a19,19,0,0,0,11.589,3.63c2.06.02,4.139,0,6.176.21a13.715,13.715,0,0,1,12.493,15.77,51.471,51.471,0,0,1-4.588,15.16c-1.146,2.49-2.4,4.93-3.356,7.49-.739,1.965-1.511,3.909-2.377,5.8h11.374a41.853,41.853,0,0,1,3.145-8.58c.964-2,1.838-4.05,2.681-6.11a26.714,26.714,0,0,0,2.27-12.5,18.62,18.62,0,0,1,.03-3.59,12.085,12.085,0,0,1,4.419-8.41,5.033,5.033,0,0,1,8.024,2.17,5.78,5.78,0,0,1,.341,4.01c-.683,2.11-1.356,4.24-2.219,6.28a23.266,23.266,0,0,0-2.178,9.43,23.141,23.141,0,0,1-4.32,13.45,15,15,0,0,0-1.893,3.85h13.057a13.227,13.227,0,0,0,2.113-6.69c.151-3.07-.019-6.16.151-9.23a48.626,48.626,0,0,1,.894-6.58,5.711,5.711,0,0,1,2.611-3.68,3.569,3.569,0,0,1,5.323,1.12,11.469,11.469,0,0,1,1.265,4.36,65.844,65.844,0,0,1-.382,7.15,46.461,46.461,0,0,0-.412,6.11,7.261,7.261,0,0,0,4.288,6.52,5.124,5.124,0,0,0,7.442-3.8,11.674,11.674,0,0,0-.241-4.04,54.8,54.8,0,0,0-1.525-5.43,12.031,12.031,0,0,1-.077-7.782,29.7,29.7,0,0,0,.9-3.1,36.076,36.076,0,0,0,1.093-5.127c.342-4.14-2.088-6.83-6.287-7.09-.725-.042-1.453-.022-2.182,0-.474.012-.949.026-1.423.021-5.815-.09-9.31-2.92-10.535-8.55-1.034-4.73-.844-9.53-.633-14.31a12.122,12.122,0,0,1,.8-3.49,5.95,5.95,0,0,1,5.814-4.27c1.537-.04,3.073.3,4.61.37a17.322,17.322,0,0,0,4.077-.11,5.3,5.3,0,0,0,4.238-6.11,6.342,6.342,0,0,0-3.254-4.96,8.317,8.317,0,0,0-6.93-.97,44.717,44.717,0,0,1-5.925,1.69c-4.75.8-8.185-2.13-7.963-6.91a20.162,20.162,0,0,1,1.365-5.95c.646-1.743,1.383-3.453,2.134-5.16Zm21.654,0a4.653,4.653,0,0,0,2.121,5.679,10,10,0,0,0,4.892,1.39,36.486,36.486,0,0,1,5.614.67,6.832,6.832,0,0,1,5.452,4.92,117.976,117.976,0,0,1,3.234,12.381c1.044,5.729-1.386,9.689-6.9,11.579a56.759,56.759,0,0,1-6.548,1.291,16.751,16.751,0,0,0-4.4,1.26,5.366,5.366,0,0,0,.041,9.589,7.365,7.365,0,0,0,4.961.941,31.4,31.4,0,0,1,5.614-.671,7.6,7.6,0,0,1,7.954,7.171,21.3,21.3,0,0,1-.122,5.11,116.4,116.4,0,0,1-2.269,14.159,13.2,13.2,0,0,0-.311,4.571,5.373,5.373,0,0,0,5.433,5.13c.821.06,1.644.045,2.469.028.549-.009,1.1-.02,1.649-.009a5.79,5.79,0,0,1,4.79,2.581,4.041,4.041,0,0,1-.824,5.909,13.4,13.4,0,0,1-4.117,2.021c-.395.11-.792.209-1.193.3h10.913a4.619,4.619,0,0,1,2.372-2.427,5.568,5.568,0,0,1,6.495,1.487,6.267,6.267,0,0,1,.637.94H703.38a22.23,22.23,0,0,1,5.765-6.831,11.023,11.023,0,0,1,9.129-2.51c1.7.29,3.4.55,5.092.82a11.159,11.159,0,0,0,9.251-2.139c3.383-2.761,6.085-6.03,6.838-10.52a5.765,5.765,0,0,0,.041-1.021,5.146,5.146,0,0,0-8.5-3.96c-1.135,1-1.978,2.34-3.023,3.461a20.961,20.961,0,0,1-3.636,3.559,4.746,4.746,0,0,1-7.331-3.51,11.866,11.866,0,0,1,.623-4.479c.492-1.62,1.386-3.13,2-4.721a11.427,11.427,0,0,0,.372-7.54,6.492,6.492,0,0,0-6.105-4.63c-2.7.03-4.49,1.511-5.283,4.7a25.279,25.279,0,0,0-.653,5.06c-.12,2.57-.04,5.13-.06,7.7a20.888,20.888,0,0,1-2.541,9.84,9.793,9.793,0,0,1-7.743,5.32,11.44,11.44,0,0,1-6.438-1.45c-3.835-1.91-7.642-3.9-11.428-5.9a11.659,11.659,0,0,1-4.279-3.621,8.348,8.348,0,0,1,2.291-12.11,5.464,5.464,0,0,1,7.722,1.511,35.3,35.3,0,0,1,2.009,4.13,17.45,17.45,0,0,0,2.3,3.939,4.678,4.678,0,0,0,7.744-1.19,5.338,5.338,0,0,0,.653-2.44,24.9,24.9,0,0,0-.562-4.539,15.913,15.913,0,0,1,1.244-10.97,39.907,39.907,0,0,0,1.919-5.281,7.137,7.137,0,0,0-.744-5.46,5.352,5.352,0,0,0-4.921-3.18c-2.029-.049-3.525,1.2-4.389,3.671-.552,1.61-.914,3.289-1.476,4.9a6.865,6.865,0,0,1-6.085,4.821,14.177,14.177,0,0,1-12.143-4.361,8.648,8.648,0,0,1-1.867-3.569,5.5,5.5,0,0,1,3.605-6.981c1.989-.769,4.026-.72,7.069-.319a45.619,45.619,0,0,0,5.675-.591,4.274,4.274,0,0,0,3.293-5.49,5.792,5.792,0,0,0-4.4-4.55c-1.657-.439-3.374-.63-5.03-1.079-4.62-1.26-6.931-4.231-6.779-8.99a47.987,47.987,0,0,1,.894-6.071l-.021.01c.372-2.289.281-4.57-1.376-6.29a15.974,15.974,0,0,0-4.148-2.929c-.14-.074-.282-.147-.424-.22Zm90.422,0a4.458,4.458,0,0,0,4,.779A10.144,10.144,0,0,0,740.548,88Zm18.882,0a5.752,5.752,0,0,1-.266,2.839,8.622,8.622,0,0,1-5.6,5.62l.06-.02c-3.877,1.36-7.824,2.52-11.779,3.67a8.625,8.625,0,0,1-2.4.217c-.226,0-.451,0-.673,0a5.864,5.864,0,0,1-5.213-2.779c-.752-1.131-1.265-2.42-1.937-3.611-2.179-3.87-4.631-5.019-8.979-4.04a28.9,28.9,0,0,0-4.359,1.541q-3.1,1.245-6.156,2.62c-4.59,2.06-9.158,2.569-13.96.54a12.3,12.3,0,0,0-5.011-.771,4.35,4.35,0,0,0-3.876,5.5,7.982,7.982,0,0,0,3.143,4.561c5.112,3.67,10.556,4.789,16.47,2.1,2.5-1.129,4.922-2.44,7.442-3.51a34.319,34.319,0,0,1,4.057-1.27c5.093.03,7.542,3.05,6.678,7.171a5.72,5.72,0,0,1-3.393,4.259,31.868,31.868,0,0,1-5.384,1.62c-1.165.28-2.41.18-3.574.45-3.767.88-5.263,3.9-3.637,7.45a14.47,14.47,0,0,0,6.2,6.67,5.564,5.564,0,0,0,6.709-.6,17.514,17.514,0,0,0,2.732-3.039c.935-1.221,1.717-2.561,2.572-3.841a28.138,28.138,0,0,1,16.238-11.889c3.133-.871,6.226-1.931,9.331-2.9a24.383,24.383,0,0,0,11.609-8.17c2.606-3.164,4.027-6.612,3.323-10.39Zm116.986,92.17a9.633,9.633,0,0,1-8.225-4.331,4.323,4.323,0,0,1,2.1-6.69,10.174,10.174,0,0,1,8.857.591,5.113,5.113,0,0,1,2.893,4.989,5.612,5.612,0,0,1-5.553,5.441h-.071M804.021,88c-4.421,4.791-8.731,9.679-11.238,15.84-.583,1.43-1.2,2.85-1.908,4.21a14.9,14.9,0,0,1-1.989,2.97,5.5,5.5,0,0,1-6.567,1.35,5.791,5.791,0,0,1-3.143-5.96,15.806,15.806,0,0,1,1.556-4.31c1.034-1.96,2.31-3.8,3.455-5.71A35.122,35.122,0,0,1,791.031,88h-15.7a10.835,10.835,0,0,1-2.591,8.52c-.854,1.08-1.678,2.17-2.451,3.3a8.585,8.585,0,0,0-.983,8.76,43.173,43.173,0,0,0,3.6,6.76,66.007,66.007,0,0,0,9.5,10.78,13.87,13.87,0,0,0,9.681,4.15,13.289,13.289,0,0,1,3.554.46c3.455.99,4.571,4.38,2.48,7.29a12.08,12.08,0,0,1-4.94,3.58,16.628,16.628,0,0,0-8.145,8.24c-2.3,4.97-4.63,9.93-6.82,14.94a13.357,13.357,0,0,0-.431,10.02,45.414,45.414,0,0,1,1.737,5.9,8.517,8.517,0,0,1,.06,3.3h9.706c-.016-3.726-.04-7.452.125-11.17a32.064,32.064,0,0,1,1.075-8.1,55.7,55.7,0,0,1,7.282-14.66,11.9,11.9,0,0,1,2.932-2.82,5.455,5.455,0,0,1,5.865-.4,4.645,4.645,0,0,1,2.341,4.8,16.413,16.413,0,0,1-.834,3.97,15.534,15.534,0,0,1-1.607,3.21c-3.516,5.63-5.162,11.84-6.187,18.33a59.216,59.216,0,0,0-.641,6.84h10.389a26.539,26.539,0,0,1,3.408-13.16,20.472,20.472,0,0,0,2.8-9.76,18.987,18.987,0,0,1,.914-5.55,5.4,5.4,0,0,1,9.079-2.37A5.82,5.82,0,0,1,828,157.31c.322,6.42-.171,12.67-4.368,18.02a20.78,20.78,0,0,0-1.749,2.54,13.917,13.917,0,0,0-1.234,2.8,4.2,4.2,0,0,0,.535,3.33h8.189c3.931-3.363,7.419-7.085,8.749-12.43a23.646,23.646,0,0,1,1.637-4.519,4.536,4.536,0,0,1,3.454-2.5,4.8,4.8,0,0,1,5.455,2.947,21.446,21.446,0,0,1,1.3,4.93,13.42,13.42,0,0,0,2.872,6.49c1.285,1.6,2.732,3.07,4.138,4.57q.246.261.5.51H914.73q-.038-.315-.075-.63a42.961,42.961,0,0,0-.794-5.06,9.4,9.4,0,0,0-11.921-6.88,17.64,17.64,0,0,0-4.177,1.95c-1.317.8-2.471,1.85-3.706,2.78a19.149,19.149,0,0,1-2.079,1.51,5.2,5.2,0,0,1-5.4.21,5.1,5.1,0,0,1-2.521-5.239c.1-1.011.552-1.981.674-2.991a34.017,34.017,0,0,0,.411-5.6,5.589,5.589,0,0,0-4.749-5.31,19.707,19.707,0,0,0-4.61-.2c-2.4.13-4.8.36-7.182.69-6.136.84-11.96.66-17.042-3.65a7.635,7.635,0,0,0-7.8-1.17,23.941,23.941,0,0,1-2.973.85,7.214,7.214,0,0,1-5.1-.8,4.6,4.6,0,0,1-2.087-5.639,8.044,8.044,0,0,1,4.784-4.275c1.274-.5,2.63-.79,3.906-1.29a8.439,8.439,0,0,0,4.564-3.681,5.168,5.168,0,0,0-6.7-7.139,21.435,21.435,0,0,0-4.419,2.58c-5.5,4.213-12.2,5.04-18.579,6.759a6.563,6.563,0,0,1-1.893.183c-4.27-.375-6.513-3.869-4.936-7.9.552-1.43,1.426-2.729,2.069-4.13.974-2.14,1.286-4.34-.361-6.27-1.627-1.9-3.765-2.22-6.105-1.48-1.146.37-2.281.75-3.445,1.06a12.916,12.916,0,0,1-2.521.48,4.528,4.528,0,0,1-4.971-4.66,6.514,6.514,0,0,1,2.289-4.98,23.642,23.642,0,0,0,5.652-8.473,22.359,22.359,0,0,1,5.8-8.12,39.016,39.016,0,0,0,4.029-4.247,5.524,5.524,0,0,0,1.115-4.426,4.352,4.352,0,0,0-.2-.814Zm20.8,0a6.233,6.233,0,0,0-.9,4.4c.593,4.48,5.543,8.63,10.726,5.991a12.628,12.628,0,0,0,1.828-.941,27.865,27.865,0,0,1,9.269-4.32,12.036,12.036,0,0,0,6.216-4.34q.313-.393.62-.789Zm48.639,24.38a10.525,10.525,0,0,1-5.894-10.95,8.137,8.137,0,0,1,3.042-5.18c2.32-1.79,4.831-1.87,7.05.05A16.155,16.155,0,0,1,882.8,106h-.01c-.03,4.422-2.781,7.146-6.164,7.146a7.271,7.271,0,0,1-3.166-.766M899.379,88a48.088,48.088,0,0,0-.654,8.47,9.456,9.456,0,0,1-.34,2.53,9.614,9.614,0,0,1-.975,2.35,4.859,4.859,0,0,1-4.66,2.639,5.094,5.094,0,0,1-4.439-3.05,8.76,8.76,0,0,1-.984-3.41c-.031-3.175,0-6.356.122-9.529H867.029a83.145,83.145,0,0,0-6.958,6.94c-2.331,2.509-3.606,5.529-2.582,8.95a59.742,59.742,0,0,0,5.6,13.709,10.679,10.679,0,0,0,8.848,5.39c1.366.1,2.743.16,4.109.241a17.978,17.978,0,0,0,12-3.741l-.01.01a55.417,55.417,0,0,1,8.848-5.17c7.8-3.709,11.43-10.119,11.911-18.35A65.414,65.414,0,0,1,909.747,88Zm99.649,0a95.4,95.4,0,0,0-.647,14.33c.09,2.22.01,4.45.01,6.67h-.01c0,5.211.023,10.421-.014,15.631a25.594,25.594,0,0,1-.317,3.838c-.834,5.231-1.758,10.451-2.641,15.671a9.74,9.74,0,0,1-2.58,5.48,4.109,4.109,0,0,1-5.183.73c-2.329-1.22-3.775-3.11-3.5-5.77a45.36,45.36,0,0,1,1.446-8.04,58.9,58.9,0,0,0,2.35-17.19c-.129-10.447-.04-20.895-.068-31.35H975.981a14.827,14.827,0,0,0,.527,3.5c.312,1.15.281,2.39.573,3.54a18.263,18.263,0,0,1,.121,8.11,27.93,27.93,0,0,0-.02,10.73c.984,5.11.522,10.23.482,15.35a12.827,12.827,0,0,1-1.306,4.9,4.848,4.848,0,0,1-4.992,2.96,4.931,4.931,0,0,1-4.549-3.6,10.165,10.165,0,0,1-.492-3.53c.02-2.22.3-4.44.341-6.66a16.891,16.891,0,0,0-.32-4.57,4.474,4.474,0,0,0-7.352-2.32,11.019,11.019,0,0,0-2.58,3.73,35.133,35.133,0,0,0-1.085,3.95,12.517,12.517,0,0,1-1.456,3.25,5.694,5.694,0,0,1-9.542-.26,7.257,7.257,0,0,1-1.044-5.87A43.769,43.769,0,0,1,947,112.79c2.623-5.2,6.465-8.186,12.586-7.348a7.994,7.994,0,0,0,3.767-.3c2.612-.929,4.216-2.691,4-5.3a4.7,4.7,0,0,0-3.5-4.01,13.6,13.6,0,0,0-2.028-.32c-1.024-.13-2.05-.18-3.063-.36-2.15-.39-3.958-1.34-4.57-3.6a5.052,5.052,0,0,1,.274-3.55h-9.869q-.033.282-.056.57a37.181,37.181,0,0,0-.442,4.58c.241,5.4-1.667,9.99-4.79,14.29a90.565,90.565,0,0,0-5.755,9.11c-2.681,4.8-2.44,9.48,1.116,13.86a39.586,39.586,0,0,1,2.995,4.146,6.894,6.894,0,0,1,.454,6.372,14.116,14.116,0,0,1-5.779,6.422c-2.9,1.75-6.007.57-6.921-2.68a22.6,22.6,0,0,1-.782-5.06,22.152,22.152,0,0,0-2.692-9.8c-2.631-4.77-2.42-9.43.251-14.15,2.109-3.72,3.977-7.58,5.986-11.35a36.821,36.821,0,0,0,4.419-15.13q.039-.594.1-1.18h-10.5c-1.148,8.507-4.432,16.291-8.044,24.01a20.009,20.009,0,0,1-11.621,10.97l-.019-.01a23.8,23.8,0,0,0-3.757,1.67,33.55,33.55,0,0,0-5.152,3.37c-4.93,4.25-6.979,9.64-5.633,16.06a36.264,36.264,0,0,0,6.156,13.43,11.007,11.007,0,0,0,2.5,2.56,13.5,13.5,0,0,0,3.184,1.58c3.164,1.19,7.141-1.68,6.909-5.42a9.564,9.564,0,0,0-1.637-4.79c-1.224-1.86-2.591-3.62-3.825-5.47-3.827-5.75-1.226-11.43,3.244-14.2,4.168-2.57,8.416-.86,9.42,3.94a58.888,58.888,0,0,1,.652,6.11,48.081,48.081,0,0,0,.764,6.61,58.54,58.54,0,0,1,1.737,10.6,12.748,12.748,0,0,0,1.075,4.44,4.982,4.982,0,0,0,7.762,1.93,13.166,13.166,0,0,0,2.571-2.49,41.979,41.979,0,0,1,9.49-8.61,32.2,32.2,0,0,0,9.1-9.66,22.379,22.379,0,0,1,2.66-3.77,11.786,11.786,0,0,1,3.657-2.72,5.46,5.46,0,0,1,6.176,1.28c1.7,1.63,2.038,3.71.974,6.13a12.117,12.117,0,0,1-1.5,2.68c-4.479,5.64-9,11.24-15.2,15.19a19.159,19.159,0,0,0-3.867,3.33,4.7,4.7,0,0,0-1.1,4.8c1.516,4.25,4.338,7.35,8.807,8.62a4.411,4.411,0,0,0,5.242-2.26,14.7,14.7,0,0,0,1.346-4.36,18,18,0,0,1,5.263-10.33,33.276,33.276,0,0,0,7.272-10.49,9.356,9.356,0,0,1,3.344-4.46,5.293,5.293,0,0,1,8.164,3.1,8.373,8.373,0,0,1,.121,3.04,14.049,14.049,0,0,1-2.672,6.59c-2.039,2.75-4.128,5.46-6.217,8.18-1.566,2.04-3.184,4.04-4.7,6.11a8,8,0,0,0-1.557,5.81,5.608,5.608,0,0,0,1.2,2.9h8.985a37.335,37.335,0,0,0,3.1-4.66c2.35-3.97,4.519-8.06,6.98-11.96a39.056,39.056,0,0,1,7.964-8.69,6.755,6.755,0,0,1,5.735-1.67c3.947.67,5.8,4.31,3.706,7.67a15.014,15.014,0,0,1-3.425,3.78,30.185,30.185,0,0,0-7.654,9.55c-1.123,2.037-2.376,4.007-3.624,5.98h11.641a93.468,93.468,0,0,1,6.728-10.79,4.486,4.486,0,0,1,5.524-1.59,4.888,4.888,0,0,1,2.923,4.47,13.289,13.289,0,0,1-1.717,7.39c-.09.174-.182.348-.275.52h11.63a7.177,7.177,0,0,1-.046-4.35,33.688,33.688,0,0,0,.7-4.04,11.121,11.121,0,0,0-4.951-11.56c-1.818-1.28-3.565-2.68-5.282-4.09-6.3-5.174-7.938-12.082-6.992-19.861a30.241,30.241,0,0,1,.768-3.846,47.69,47.69,0,0,0,1.613-12.853c-.1-5.13-.079-10.27.011-15.4.049-3.07.33-6.15.532-9.22.2-2.9.692-5.8.6-8.68q-.033-1.053-.043-2.1Zm23.175,0c.158,2.149.268,4.3.372,6.459a19.348,19.348,0,0,1-1.276,8.56,25.487,25.487,0,0,0-1.175,17.55,18.316,18.316,0,0,1-.844,12.51c-1.406,3.39-1.5,6.961-1.426,10.581l.011-.02a13.337,13.337,0,0,0,6.508,11.54c1.576,1.029,3.233,1.949,4.769,3.029a10.213,10.213,0,0,1,4.631,7.1,35,35,0,0,1,.612,6.09,20.737,20.737,0,0,0,3.338,12.6h11.312q-.649-2.362-1.474-4.691c-.793-2.25-1.676-4.49-2.25-6.81-1.214-4.909-.482-9.489,2.853-13.5,1.747-2.109,3.454-4.259,5.111-6.429a11.775,11.775,0,0,1,6.689-4.5c.833-.2,1.668-.411,2.491-.671,4.51-1.409,6.1-3.63,5.875-8.3-.241-3.58-.452-7.159-.763-10.73a8.834,8.834,0,0,0-.823-2.93,4.673,4.673,0,0,0-8.306-.73,10.04,10.04,0,0,0-1.787,4.2c-.573,4.831-3.063,7.76-7.794,9.01-3.254.85-4.65,3.25-4.8,6.5a23.928,23.928,0,0,1-.432,4.58,5.147,5.147,0,0,1-6.3,3.88,8.792,8.792,0,0,1-3.263-1.409,13.2,13.2,0,0,1-5.314-7.37c-1.567-5.971.04-10.011,5.042-12.551,1.526-.769,3.153-1.33,4.74-1.98a19.459,19.459,0,0,0,6.488-4.079q3.632-3.631,7.311-7.23a8.39,8.39,0,0,0,2.3-3.931,4.146,4.146,0,0,0-4.439-5.339,8.533,8.533,0,0,0-5.514,2.489c-1.6,1.54-3.022,3.261-4.6,4.84a22.248,22.248,0,0,1-3.817,3.391c-3.314,2.029-7.04.26-7.873-3.561a10.7,10.7,0,0,1,7.5-12.85c1.316-.4,2.7-.55,4-1a10.462,10.462,0,0,0,3.164-1.6c2.511-2.05,2.26-5.19-.563-6.771a15.19,15.19,0,0,0-3.836-1.4,8.3,8.3,0,0,1-5.988-4.53Zm41.848,0c-.59.55-1.219,1.067-1.839,1.57-1.326,1.08-2.822,1.939-4.158,3.009a6.292,6.292,0,0,0-2.209,5.981,4.626,4.626,0,0,0,5.834,4.23,13.843,13.843,0,0,0,4.55-2.25c2.069-1.52,3.927-3.311,5.845-5.02a9.618,9.618,0,0,0,3.548-7.52Zm27.564,0a10.293,10.293,0,0,1-1.695,3.849c-3.887,5.631-7.914,11.221-14.3,14.451a19.336,19.336,0,0,0-3.425,2.25,5.059,5.059,0,0,0-1.828,3.559,5.872,5.872,0,0,0,4.7,6.421c3.656.889,7.882.509,10.755-4.03a67.545,67.545,0,0,1,9.9-12.36,17.452,17.452,0,0,0,5.415-13.441q-.009-.348,0-.7Zm20.161,0a5.929,5.929,0,0,0-1.084,4.18,4.339,4.339,0,0,0,5.954,3.78,15.519,15.519,0,0,0,3.385-2.25c1.084-.83,2-1.89,3.144-2.61a4.35,4.35,0,0,1,5.956,1.1,6.643,6.643,0,0,1,1.285,2.741,21.888,21.888,0,0,1-2.321,13.41c-1.788,3.54-5.413,4.179-8.736,1.939-1.276-.859-2.4-1.939-3.657-2.829-3.544-2.53-5.914-2.381-9.21.5a10.267,10.267,0,0,0-.743.71c-3.234,3.54-6.527,7.03-9.641,10.671a10.035,10.035,0,0,0-2.028,4.05c-.935,3.8,2.2,6.75,6.015,5.919a7.385,7.385,0,0,0,4.238-2.72c1.075-1.33,2.02-2.77,3.154-4.05,2.963-3.32,5.714-3.829,9.632-1.88.913.46,1.767,1.05,2.681,1.53,5.142,2.731,9.49,1.931,13.337-2.46a12.685,12.685,0,0,0,1.536-2.05,38.662,38.662,0,0,0,5.453-17.53,71.822,71.822,0,0,0-1.456-7.5c-.467-1.559-.972-3.108-1.5-4.649Zm35.5,0c.469,3.514,3.394,6.188,8.251,6.849,1.356.18,2.751.07,4.117.2a7.329,7.329,0,0,1,6.086,4.159,4.941,4.941,0,0,1-2.189,6.97,13.234,13.234,0,0,1-3.957.77,4.58,4.58,0,0,1-1.486-.36c-.833-.2-1.667-.42-2.511-.58-4.036-.76-6.637.94-7.481,5.01-.452,2.17-.633,4.4-1.046,6.58a22.6,22.6,0,0,1-4.509,9.681c-2.761,3.519-6.307,5.859-10.865,6.149-3.245.2-9.313.041-9.313.041v-.1s-4.226-.339-6.114-.41a19.346,19.346,0,0,0-4.1.18,4.514,4.514,0,0,0-3.184,7.02,11.048,11.048,0,0,0,2.712,3.041,26,26,0,0,1,6.215,6.789,16.247,16.247,0,0,0,1.225,1.65,7.977,7.977,0,0,0,1.115,1.06,4.6,4.6,0,0,0,7.3-1.669c.874-1.851,1.317-3.9,2.24-5.711a5.614,5.614,0,0,1,5.975-3.109,6.164,6.164,0,0,1,5,5.189,9.068,9.068,0,0,1-.743,5.511c-.843,1.679-1.707,3.35-2.6,5a11.973,11.973,0,0,0-1.748,6.361c.221,4.259.583,8.519.924,12.78a7.329,7.329,0,0,0,1.778,4.189,4.754,4.754,0,0,0,5,1.9,4.552,4.552,0,0,0,3.645-3.88,20.086,20.086,0,0,0,.12-5.089c-.582-5.06-.07-9.881,2.551-14.371a14.078,14.078,0,0,0,1.537-8.949,14.87,14.87,0,0,0-1.155-4.431c-2.441-5.31-1.9-10.239,1.387-15.03a28.331,28.331,0,0,0,2.831-5.45c1.727-4.29,4.61-7.129,9.259-8.019a12.5,12.5,0,0,0,1.5-.36,10.546,10.546,0,0,0,6.789-6.521c1.577-4.15,3.334-8.23,4.911-12.379a16.058,16.058,0,0,0,1.106-4.441,4.847,4.847,0,0,0-4.309-5.459,24.2,24.2,0,0,0-4.6-.01c-1.366.039-2.741.28-4.1.19a3.872,3.872,0,0,1-2.332-.94Zm38.5,0a4.662,4.662,0,0,0,1.5,2.81,5.164,5.164,0,0,0,6.176.669,7.521,7.521,0,0,0,1.948-1.639q.74-.925,1.489-1.84Zm22.381,0c-.918,1.02-1.827,2.047-2.7,3.109a24.293,24.293,0,0,0-3.053,4.671,4.368,4.368,0,0,0-.049,2.929c.824,2.58,3.916,3.5,6.346,1.751a16.982,16.982,0,0,0,3.856-4.041,31.244,31.244,0,0,1,8.49-8.419Zm69.729,0a13.855,13.855,0,0,1-6.313,3.89,41.287,41.287,0,0,0-10.154,4.94,19.987,19.987,0,0,1-3.686,1.81,4.984,4.984,0,0,1-5.685-1.23,5.281,5.281,0,0,1-1.275-6.11,10.081,10.081,0,0,1,2.014-3.3h-12.917a9.831,9.831,0,0,0,.248,6.19c.372,1.13,1.033,2.16,1.445,3.28,1.356,3.64,1.015,7.04-1.567,10.09-.662.78-1.366,1.54-1.989,2.35-3.877,5.03-2.892,8.77,3.043,11.19,2.541,1.03,5.2,1.77,7.764,2.74a30.611,30.611,0,0,0,15.706,1.35c5.093-.75,10.245-1.08,15.377-1.57a18.367,18.367,0,0,1,2.57,0c5.273.32,7.773,5.6,6.117,9.13-.583,1.23-1.076,2.51-1.688,3.73s-1.346,2.38-2.028,3.57a6.533,6.533,0,0,0-.684,4.48,4.7,4.7,0,0,0,3.5,4.02,4.574,4.574,0,0,0,4.709-1.32,12.673,12.673,0,0,0,1.758-2.51,26.3,26.3,0,0,1,1.707-3.15,10.55,10.55,0,0,1,2.993-2.67,4.142,4.142,0,0,1,5.917,2.27,5.844,5.844,0,0,1-.122,5.45c-2.28,3.83-4.7,7.61-8.125,10.53-3.635,3.11-7.752,3.4-12.011,1.34a32.114,32.114,0,0,1-3.887-2.5,10.154,10.154,0,0,0-5.241-1.93,4.693,4.693,0,0,0-4.942,6.07,8.222,8.222,0,0,0,2.27,3.95,11.442,11.442,0,0,0,5.734,3.29,62.176,62.176,0,0,0,15.325,1.66,10.982,10.982,0,0,0,6.628-2.52c3.756-3.08,7-6.54,8.647-11.26a27.473,27.473,0,0,1,2.169-4.64,4.433,4.433,0,0,1,4.771-2.33,4.235,4.235,0,0,1,3.645,3.79,6.3,6.3,0,0,1,.02,3,27.907,27.907,0,0,1-2.138,4.62c-.813,1.5-1.839,2.88-2.673,4.38a6.56,6.56,0,0,0-.542,4.98,3.88,3.88,0,0,0,3.726,2.99c3.6.16,5.916-1.82,7.171-4.85,1.767-4.26,3.234-8.64,4.711-13.01a9.532,9.532,0,0,0-1.568-8.76,17.593,17.593,0,0,0-3.525-3.69c-5.162-4.06-10.7-7.34-17.224-8.9-5.463-1.31-8.888-4.94-10.053-10.53a34.221,34.221,0,0,0-1.135-4.47,8.112,8.112,0,0,0-7.23-5.71,28.263,28.263,0,0,0-9.21.67c-6.367,1.39-12.734,2.79-19.131,4.1a18.264,18.264,0,0,1-5.092.44,8.213,8.213,0,0,1-3.776-1.39,4.705,4.705,0,0,1,.793-8.32,10.873,10.873,0,0,1,4.981-.91,20.239,20.239,0,0,0,11.379-2.59,26.667,26.667,0,0,1,9.821-2.86c1.2-.13,2.411-.14,3.6-.31a7.018,7.018,0,0,0,5.393-3.54,14.2,14.2,0,0,0,1.346-3.84c.407-1.853.786-3.711,1.156-5.57Zm41.352,0c0,3.611.015,7.217,0,10.83a9.141,9.141,0,0,1-1.566,5.34,4.376,4.376,0,0,1-6.73.76,8.94,8.94,0,0,1-1.957-2.95,11.868,11.868,0,0,1-.874-6.03c.3-2.649.373-5.342.824-7.95h-8.94c-.31,1.805-.634,3.61-.913,5.42-.924,6.05-.04,11.58,4.62,16.07a21.232,21.232,0,0,1,5.052,8.25,19.491,19.491,0,0,0,1.9,4.19c2.661,4.01,7.792,3.66,9.942-.66a12.623,12.623,0,0,0,1.075-3.41,23.167,23.167,0,0,1,4.739-10.66,13.924,13.924,0,0,0,3.034-8.58c.045-3.538.05-7.079.036-10.62Zm95.5,0a5.526,5.526,0,0,0-2.65,2.569,12.247,12.247,0,0,0-1.155,5.97c.02,7.18.06,14.37-.03,21.551a43.432,43.432,0,0,1-.7,7.11,38.436,38.436,0,0,1-1.728,6.409c-3.374,9.321-6.829,18.611-10.264,27.91-.773,2.09-1.547,4.16-3.274,5.731-2.762,2.51-6.217,2.269-8.547-.64a6.478,6.478,0,0,1-1.426-3.77,9.788,9.788,0,0,1,1.326-5.41c3.284-5.86,5.021-12.33,7.422-18.54a62.069,62.069,0,0,0,4.188-26.1,43.056,43.056,0,0,1,2.038-15.171,17.855,17.855,0,0,0,.824-6.03,11.149,11.149,0,0,0-.2-1.589h-12.865c-.058.8-.094,1.6-.134,2.4-.19,3.931.03,7.9-.492,11.78a64.109,64.109,0,0,0-.683,11.751c.432,8.74-1.637,16.979-4.871,24.96-1.868,4.609-3.686,9.2-4.4,14.149a9.594,9.594,0,0,1-.9,2.921,4.615,4.615,0,0,1-7.693,1.309,8.365,8.365,0,0,1-2.431-7.5,24.931,24.931,0,0,1,2.23-7.331,23.692,23.692,0,0,0,2.551-11.4,26.812,26.812,0,0,1,1.445-9.591,50.6,50.6,0,0,0,2.411-18.2A43.247,43.247,0,0,1,1376.309,88h-13.185c.289,5.371.093,10.753.087,16.13-.01,4.449-.281,8.91-2.049,13.089a22.408,22.408,0,0,0-1.146,13.08,30.4,30.4,0,0,1,.292,6.12,6.626,6.626,0,0,1-2.049,4.58,4.561,4.561,0,0,1-6.477.3,10.641,10.641,0,0,1-2.38-3.281c-1.466-3.269-2.782-6.619-4.077-9.959a11.576,11.576,0,0,1,.9-10.821,21.955,21.955,0,0,1,1.4-2.16,22.4,22.4,0,0,0,4.66-17.36c-.417-3.234-.664-6.474-.8-9.719h-10.335q-.015,5.637-.037,11.27a20.254,20.254,0,0,1-2.49,9.319l-.02.01c-1.395,2.741-2.541,5.611-3.887,8.37-1.054,2.14-2.229,4.23-3.4,6.3-.673,1.19-1.587,2.25-2.158,3.48a5.281,5.281,0,0,0,2.158,7.11c1.016.631,2.17,1.02,3.234,1.57a21.537,21.537,0,0,1,3.566,2.03c2.912,2.321,4.258,5.3,3.264,9.061-.262.99-.482,2-.8,2.97a39.136,39.136,0,0,0-1.958,9.509,16.737,16.737,0,0,1-4.369,10.191,24.283,24.283,0,0,0-3.134,4.659,4.891,4.891,0,0,0,0,4.461c1.035,2.32,3.163,3.31,5.473,2.25a11.321,11.321,0,0,0,3.766-2.571c4.259-4.88,7.3-10.34,7.442-17.04a18.233,18.233,0,0,1,.171-3.069,11.441,11.441,0,0,1,1.055-3.391c1.647-3,4.659-3.569,7.331-1.42a10.083,10.083,0,0,1,3.726,9.6,18.886,18.886,0,0,1-2.3,6.76,61.78,61.78,0,0,1-7.612,10.941,28.044,28.044,0,0,0-2.758,3.63h13.2c2.035-3.648,3.966-7.373,6.253-10.861,2.318-3.52,5.7-5.379,10.715-3.09,3.585,1.64,7.211,3.2,10.717,5.011a10.229,10.229,0,0,1,3.415,3,4.939,4.939,0,0,1-.128,5.941h9.561a30.2,30.2,0,0,0,1.643-6.05,44.241,44.241,0,0,1,5.192-15.451,97.718,97.718,0,0,0,6.648-15c1.577-4.521,3.3-8.98,5.062-13.431a33.957,33.957,0,0,0,2.782-13.449,84.8,84.8,0,0,1,.632-13.811,48.317,48.317,0,0,0,.151-8.7,15.205,15.205,0,0,0-2.862-8.131A5.486,5.486,0,0,0,1418.052,88Zm19.766,0a8.48,8.48,0,0,0-.752,8.14,6.4,6.4,0,0,0,8.828,3.76,18.656,18.656,0,0,0,4.619-3.2c2.17-1.94,4.148-4.089,6.237-6.13q1.307-1.276,2.6-2.569Zm38.292,0q-1.666,1.577-3.283,3.2a84.8,84.8,0,0,1-11.187,9.83,17.11,17.11,0,0,0-3.737,3.481,7.674,7.674,0,0,0,2.481,11.469,4.752,4.752,0,0,0,5.754-.47,9.623,9.623,0,0,0,2.521-3.179c2.7-5.991,7.241-10.36,12.463-14.081a80.117,80.117,0,0,0,10.555-9q.619-.625,1.24-1.249Zm35.522,0a27.224,27.224,0,0,0-8.487,5.95c-3.125,3.18-6.367,6.24-9.49,9.419a41.564,41.564,0,0,1-8,6.421,39.354,39.354,0,0,0-4.238,2.91,9.482,9.482,0,0,0-3.887,7.339c-.111,4.5,1.547,7.36,4.7,8.45a7.181,7.181,0,0,0,8.366-2.28,63.138,63.138,0,0,0,3.836-5.44,74.984,74.984,0,0,1,4.881-7.22c4.017-4.68,8.276-9.139,12.463-13.68a10.631,10.631,0,0,1,4.66-3.1,4.674,4.674,0,0,1,5.7,2.219,7.09,7.09,0,0,1,.572,5.46,17.017,17.017,0,0,1-4.339,7.46v.02c-2.973,3.091-5.965,6.161-8.8,9.37-2.26,2.57-4.329,5.31-6.417,8.031a24.848,24.848,0,0,1-9.571,7.589,30.287,30.287,0,0,0-3.441,1.8,6.8,6.8,0,0,0-3.266,5.341c-.135,2.688,1.223,4.511,3.061,5.994a5.276,5.276,0,0,0,7.08.109,16.965,16.965,0,0,0,3.165-3.34,51.069,51.069,0,0,1,9.288-9.549,45.633,45.633,0,0,0,6.026-5.58,117.036,117.036,0,0,1,13.256-13.61c3.756-3.291,5.373-7.45,3.856-12.471-.151-.489-.151-1.029-.311-1.51-1.135-3.25-.562-6.4.482-9.54a39.282,39.282,0,0,0,1.216-3.919,7.245,7.245,0,0,0,.1-2.64Zm33.913,0,.2.629a9.407,9.407,0,0,1-.31,6.779c-.532,1.249-1.073,2.493-1.478,3.788a17.387,17.387,0,0,0-.944,4.183c-.151,3.1,2.129,5.071,5.292,4.711,1.185-.131,2.34-.491,3.525-.71a9.961,9.961,0,0,1,9.42,2.829c1.687,1.69,3.4,3.371,5.142,5.02a70.986,70.986,0,0,0,5.333,4.8,11.77,11.77,0,0,0,4.067,2.04,4.916,4.916,0,0,0,5.915-6.44,11.367,11.367,0,0,0-2.32-3.91,40.138,40.138,0,0,0-4.981-4.419c-4.2-3.24-8.467-6.39-12.734-9.55a16.745,16.745,0,0,1-5.092-5.67,10.491,10.491,0,0,1-1.233-4.08Zm24.628,0c1.112,3.94,3.833,7.49,7.5,8.92,4.73,1.84,8.335-1.1,8.1-5.991a9.642,9.642,0,0,0-.392-2.32q-.113-.3-.226-.609Zm64.292,0c-1.177,2.021-2.37,4.033-3.492,6.079a16.36,16.36,0,0,1-9.248,7.77,32.079,32.079,0,0,0-11.881,6.961,12.359,12.359,0,0,1-3.425,2.239,4.706,4.706,0,0,1-6.71-4.05,7.323,7.323,0,0,1,2.691-6.369,26.047,26.047,0,0,1,4.651-3.181c3.154-1.74,6.4-3.32,9.581-4.99a21.272,21.272,0,0,0,5.9-4.459h-20.324a10.578,10.578,0,0,0-5.429,4.07c-2.5,4.079-4.952,8.21-7.06,12.489-2.12,4.32-.914,8.36,2.128,11.87,1.226,1.41,2.792,2.54,4.1,3.88a29.187,29.187,0,0,1,2.962,3.51,3.914,3.914,0,0,1-.031,4.37,4.953,4.953,0,0,1-4.489,2.951l.052-.031a52.448,52.448,0,0,1-5.595-.57,35.5,35.5,0,0,0-4.048-.569,3.973,3.973,0,0,0-4.057,3.279,8.855,8.855,0,0,0,.08,3.52,19.866,19.866,0,0,0,1.466,3.821,11.189,11.189,0,0,1-.41,10.36,26.721,26.721,0,0,1-8.578,10.07c-1.406.98-2.893,1.849-4.3,2.829-4.82,3.371-5.614,7.271-2.55,12.381.793,1.319,1.828,2.51,2.491,3.89a33.782,33.782,0,0,1,1.456,3.88h11.545a12.743,12.743,0,0,0-.969-2.131,40.007,40.007,0,0,1-2.179-4.07c-1.618-3.79-.9-6.959,2.188-9.72a42.769,42.769,0,0,1,4.067-3.14,15.647,15.647,0,0,0,7.031-11.97c.1-1.19.281-2.379.352-3.569.26-4.341,2.551-7.331,6.3-9.331,1.356-.72,2.792-1.31,4.168-2.019a9.838,9.838,0,0,0,5.473-7.051,58.575,58.575,0,0,0,.763-6.09,12.1,12.1,0,0,1,5.464-9.429,36.017,36.017,0,0,1,4.89-2.831c5.021-2.309,8.838-1.34,12.283,2.98a24.811,24.811,0,0,1,4.047,7.691c.815,2.43,1.356,4.959,2.31,7.329a72.175,72.175,0,0,0,3.968,8.29,6.938,6.938,0,0,0,5.313,3.711,14.8,14.8,0,0,0,11.87-3.8c2.37-2.17,1.838-5.379-1.084-6.75a23.925,23.925,0,0,0-4.92-1.35,9.412,9.412,0,0,1-7.423-6.39c-.221-.65-.5-1.27-.713-1.92a30.915,30.915,0,0,0-5.252-9.929,19.423,19.423,0,0,1-1.426-2.131,9.141,9.141,0,0,1-.452-9.289c.832-1.681,1.867-3.26,2.8-4.89,1.563-2.74,3.161-5.461,4.728-8.2Zm49.465,0-.091.12c-2.149,2.88-4.328,5.739-6.366,8.689a13.843,13.843,0,0,0-2.45,6.67c-.2,2.21-.543,4.41-.823,6.611a6.3,6.3,0,0,1-2.462,4.339,5.13,5.13,0,0,1-4.349,1.07,9.009,9.009,0,0,1-6.617-11.84,22.53,22.53,0,0,1,2.12-4.08l.029.01A86.615,86.615,0,0,0,1665.814,88h-11.641c-.161.291-.324.581-.491.869-1.878,3.26-3.806,6.49-5.674,9.75a15.069,15.069,0,0,0-.411,14.72,16.526,16.526,0,0,0,8.154,8.2c1.707.791,3.475,1.47,5.193,2.231,5.041,2.25,7.672,6.11,7.773,11.629a34.646,34.646,0,0,0,.112,4.091,12.754,12.754,0,0,0,1.053,3.919c1.738,3.43,5.775,3.52,7.8.28a9.028,9.028,0,0,0,1.085-6.429c-.293-1.851-.794-3.671-1.237-5.49a24.317,24.317,0,0,1,.975-15.081c1.266-3.17,2.511-6.36,3.474-9.63a22.812,22.812,0,0,1,6.91-10.59c1.4-1.26,2.851-2.46,4.207-3.769a12.332,12.332,0,0,0,3.122-4.7Zm28.586,0a12.182,12.182,0,0,1-3.919,10.42c-1.237,1.19-2.481,2.37-3.787,3.47a47.556,47.556,0,0,0-11.529,14.92,24.71,24.71,0,0,0-2.149,17.39,54.783,54.783,0,0,1,1.457,8.57,37.8,37.8,0,0,0,2.389,10.98,48.727,48.727,0,0,1,2.9,11.91,11.345,11.345,0,0,0,1.126,3.89c1.656,3.24,5.452,3.41,7.44.36a8.193,8.193,0,0,0,1.247-6.38,56.076,56.076,0,0,0-1.679-6.44c-2.722-7.8-3.474-16.01-5.031-24.05-1.286-6.64.763-12.51,5.524-17.38.482-.49.933-1.01,1.426-1.48,4.911-4.8,9.55-9.79,13.116-15.73a15.867,15.867,0,0,1,11.208-7.48,34.129,34.129,0,0,0,4.488-1.09,13.839,13.839,0,0,0,3.772-1.88Zm41.079,0a51.019,51.019,0,0,0-1.884,14.88,72.186,72.186,0,0,1-.723,13.3c-.362,2.13.079,4.41.28,6.61a28.631,28.631,0,0,0,.7,3.52,15.084,15.084,0,0,1,.341,1.5c.5,4.26-2.119,7.58-6.476,7.37l-.02-.02a55.456,55.456,0,0,0-16.36,1.12,7.153,7.153,0,0,1-4-.53,5.422,5.422,0,0,1-1.275-9.26,14.021,14.021,0,0,1,4.189-1.81,20.309,20.309,0,0,1,3.063-.38c3.987-.59,6.608-2.72,7.541-6.7a47.117,47.117,0,0,1,3.506-10.16,8.867,8.867,0,0,0,.783-5,4.179,4.179,0,0,0-4.218-3.72,5.84,5.84,0,0,0-3.8,1.35,16.576,16.576,0,0,0-4.591,6.1,20.8,20.8,0,0,1-8.576,9.3,28.505,28.505,0,0,0-4.228,2.93c-6.768,5.64-8.113,10.21-5.232,17.55a21.159,21.159,0,0,1,1.376,11.55,18.162,18.162,0,0,0,1.055,9.06c.33.97.673,1.94,1.095,2.88a16.5,16.5,0,0,1,.572,12.97,18.687,18.687,0,0,0-1.035,3.96,5.446,5.446,0,0,0,3.867,5.93,5.531,5.531,0,0,0,6.278-2.33,11.557,11.557,0,0,0,1.214-2.8c.353-1.14.462-2.35.813-3.49a12.523,12.523,0,0,1,1.327-3.3,4.733,4.733,0,0,1,8.385.39,6.481,6.481,0,0,1,.735,2.93,15.8,15.8,0,0,1-.533,4.56,15.856,15.856,0,0,0-.652,5.74H1743.8q-.016-.858.034-1.73c.161-2.73.462-5.45.7-8.17.151-1.7.331-3.4.5-5.1h-.181a35.627,35.627,0,0,0-.021-3.59q-1.009-10.59-11.3-7.62c-1.486.43-2.932.96-4.419,1.38a7.106,7.106,0,0,1-5.905-1.06,7.256,7.256,0,0,1-2.953-8.53c1.064-2.88,4.027-4.43,7.552-3.92a20.6,20.6,0,0,1,3.034.58c3.454,1.06,6.8.52,10.112-.58.814-.27,1.627-.56,2.451-.77a7.782,7.782,0,0,1,9.209,3.81,15.335,15.335,0,0,1,1.989,6.31,93.5,93.5,0,0,1-.663,24.55c-.213,1.479-.442,2.959-.613,4.44h9.725c.756-6.828,2.38-13.523,3.222-20.34.682-5.51,0-10.6-3.264-15.14a21.059,21.059,0,0,1-3.866-13.02c.109-11.97.019-23.95.08-35.92a26.525,26.525,0,0,1,.582-6.63c.437-1.638.82-3.291,1.182-4.95ZM1864.1,150.4a6.166,6.166,0,0,1,1.346-7.04,12.993,12.993,0,0,1,8.186-3.831c3.243-.24,5.544,1.74,5.6,5.42A15.463,15.463,0,0,1,1878.1,148a10.5,10.5,0,0,1-7.321,5.13,6.4,6.4,0,0,1-1.3.132,6.159,6.159,0,0,1-5.378-2.861M1834.188,88c0,.113,0,.227-.007.34-.09,3.59-.011,7.18,0,10.77a15.57,15.57,0,0,0,2.892,9.15c.782,1.12,1.527,2.28,2.309,3.4a8.685,8.685,0,0,1,.684,9.22c-.584,1.24-1.276,2.43-1.828,3.68a11.008,11.008,0,0,0,1.294,11.63,43.986,43.986,0,0,0,3.486,3.76,27.945,27.945,0,0,1,2.771,3.02,4.72,4.72,0,0,1-1.728,7.02,7.831,7.831,0,0,1-5.472.9,10.443,10.443,0,0,1-7.3-5.21c-1.246-2.24-2.2-4.64-3.426-6.89a23.379,23.379,0,0,1-2.591-9.84c-.21-3.06-.02-6.16-.15-9.23a44.86,44.86,0,0,0-.744-8.14,56.884,56.884,0,0,1-1.616-15.24,45.436,45.436,0,0,0-.484-8.34H1810.52a55.977,55.977,0,0,1,.2,7.14c-.06,1.54.031,3.08.01,4.62a30.253,30.253,0,0,0,1.969,11.56,28.529,28.529,0,0,1,1.939,12.55c0,1.7.091,3.42-.021,5.12a10.6,10.6,0,0,1-5.795,9.1,26.913,26.913,0,0,1-5.152,2.3c-4.439,1.31-8.917,2.46-13.416,3.55a11.335,11.335,0,0,1-3.587.15,5.86,5.86,0,0,1-4.719-2.75,10.889,10.889,0,0,1-.955-9.691,4.893,4.893,0,0,1,5.349-3.252,21.346,21.346,0,0,1,3.86,1.343,27.177,27.177,0,0,0,4.328,1.58,9.284,9.284,0,0,0,4.028-.14c6.4-1.72,7.37-10.53,3.786-14.34a5.418,5.418,0,0,0-3.625-1.73,9.147,9.147,0,0,0-5.423,1.29,46.988,46.988,0,0,1-4.529,2.42,6.04,6.04,0,0,1-7.733-2.13,8.468,8.468,0,0,1-1.6-6.3,5.767,5.767,0,0,1,5.916-5.26,25.805,25.805,0,0,1,5.081.71c5.976,1.34,12.152-4.5,10.907-11.39-.753-4.15-4.62-5.79-8.155-3.43-.994.67-1.868,1.521-2.813,2.25a22.774,22.774,0,0,1-2.5,1.8,4.137,4.137,0,0,1-5.885-1.24,8.188,8.188,0,0,1-1.325-3.78,8.832,8.832,0,0,1,.1-2.05h-9.075a51.036,51.036,0,0,0-.683,9.2c.06,10.09.01,20.18.03,30.27,0,3.59.11,7.18.11,10.77a13.738,13.738,0,0,0,2.872,8.59c.623.81,1.185,1.68,1.848,2.46a12.106,12.106,0,0,1,2.581,11.07,50.019,50.019,0,0,0-1.075,11.2,16.856,16.856,0,0,1-2.089,7.86,37.857,37.857,0,0,0-2.2,4.05c-.066.175-.132.351-.194.53h17.635a9.692,9.692,0,0,0,1.167-.78c2.38-1.83,2.993-4.14,1.637-6.78-.854-1.66-2.049-3.15-3.033-4.75a16.617,16.617,0,0,1-1.526-14.3,7.155,7.155,0,0,1,3.495-4.26,4.838,4.838,0,0,1,6.739,1.61,8.323,8.323,0,0,1,1.075,3.35c.16,1.52-.08,3.07-.06,4.61a19.585,19.585,0,0,0,.271,4.07,5.351,5.351,0,0,0,9.31,2.12,7.888,7.888,0,0,0,1.938-5.69c-.071-1.35-.482-2.68-.613-4.04-.241-2.54-.493-5.09-.552-7.64a6.6,6.6,0,0,1,1.928-4.63,6.053,6.053,0,0,1,8.346-.54,5.937,5.937,0,0,1,2.38,4.9c-.09,2.04-.5,4.06-.632,6.1a15.17,15.17,0,0,0,.12,4.53,4.357,4.357,0,0,0,6.076,2.97,12.674,12.674,0,0,0,3.5-2.11,11.8,11.8,0,0,1,9.5-3,13.654,13.654,0,0,0,8.446-1.72,15.806,15.806,0,0,1,1.858-.89,8.605,8.605,0,0,1,8.778.94c.843.6,1.627,1.27,2.41,1.93h.04c3.333,2.82,7.059,3.22,11.107,1.9a22.488,22.488,0,0,0,9.209-5.44,49.215,49.215,0,0,1,9.531-7.79,10.053,10.053,0,0,0,2.912-2.84c1.567-2.21.894-4.71-1.516-6.08a11.1,11.1,0,0,0-2.39-.9c-1.316-.38-2.692-.6-3.978-1.05a4.561,4.561,0,0,1-3.073-6.12,16.325,16.325,0,0,1,1.306-2.78c.4-.75.914-1.44,1.335-2.19a7.731,7.731,0,0,0-.4-8.71,28.317,28.317,0,0,0-3.6-4.34c-3.877-3.71-6.618-7.87-6.187-13.51a3.838,3.838,0,0,0-.09-1.02c-.583-3.12-2.248-5.44-5.373-6.26-3.143-.83-6.377-1.33-9.591-1.89a5.084,5.084,0,0,0-2.039.19c-4.138,1.01-5.584,5.1-2.812,8.31a16.8,16.8,0,0,0,3.867,3.089,22.746,22.746,0,0,1,7.271,7.321c1.537,2.46,3.375,4.74,5.072,7.1a27.144,27.144,0,0,1,2.319,3.37c1.808,3.57.472,6.93-3.284,8.26a31.107,31.107,0,0,1-4.509,1.06,9.547,9.547,0,0,0-6.6,4.48,26.757,26.757,0,0,1-2,2.99,5.053,5.053,0,0,1-8.325-.39,9.859,9.859,0,0,1-1.889-5.23c-.241-4.25,1.135-6.44,5.1-7.8,1.3-.44,2.671-.66,3.946-1.16,4.029-1.58,4.65-5.28,1.336-7.96a17.665,17.665,0,0,0-3-1.718,16.786,16.786,0,0,0-1.665-.716c-5.572-2.146-8.515-5.983-8.843-11.836-.231-4.12-.554-8.23-.88-12.34Zm92.894,0a18.741,18.741,0,0,1-15.858,0h-22.867q2.416.6,4.888,1.02a21.091,21.091,0,0,1,10.545,5.03c1.417,1.239,2.9,2.409,4.288,3.69,5.744,5.31,16.662,4.849,21.8-.18a24.556,24.556,0,0,1,3.966-3.25,9.519,9.519,0,0,1,3.766-1.41c2.792-.351,4.51,1.42,4.539,4.259a6.852,6.852,0,0,1-1.828,4.67c-1.346,1.55-2.812,2.99-4.217,4.49a10.16,10.16,0,0,0-2.933,7.95,41.618,41.618,0,0,0,1.215,6.54,9.593,9.593,0,0,0,5.765,6.821,46.747,46.747,0,0,1,11.4,6.9,12.083,12.083,0,0,0,4.64,2.07,5.372,5.372,0,0,0,5.865-2.29,5.69,5.69,0,0,0-.241-6.28,9.318,9.318,0,0,0-3.887-3.269c-2.008-.961-4.067-1.82-6.086-2.761a29.876,29.876,0,0,1-4.127-2.07c-3.134-2.1-3.907-5.14-2.24-8.48a19.226,19.226,0,0,1,1.928-3.03,28.613,28.613,0,0,0,4.63-9.11A26.241,26.241,0,0,1,1958.891,88Z" transform="translate(-100 -88)" fill="url(#linear-gradient)"/>
    </clipPath>
    <clipPath id="clip-Top_Bar_Navigator_BG">
      <rect width="1872" height="96"/>
    </clipPath>
  </defs>
  <g id="Top_Bar_Navigator_BG" data-name="Top Bar Navigator BG" clip-path="url(#clip-Top_Bar_Navigator_BG)">
    <rect id="Rectangle_2054" data-name="Rectangle 2054" width="1872" height="96" rx="24" fill="#2b0a3d"/>
    <g id="Group_2849" data-name="Group 2849" clip-path="url(#clip-path)" style="isolation: isolate">
      <rect id="Rectangle_2053" data-name="Rectangle 2053" width="1872" height="96.61" rx="24" transform="translate(0)" fill="url(#linear-gradient)"/>
    </g>
  </g>
</svg>
